<?xml version="1.0" encoding="UTF-8" standalone="no"?>
<!DOCTYPE svg PUBLIC "-//W3C//DTD SVG 1.1//EN"
 "http://www.w3.org/Graphics/SVG/1.1/DTD/svg11.dtd">
<!-- Generated by graphviz version 14.1.4 (20260321.0153)
 -->
<!-- Title: G Pages: 1 -->
<svg width="345pt" height="227pt"
 viewBox="0.00 0.00 345.00 227.00" xmlns="http://www.w3.org/2000/svg" xmlns:xlink="http://www.w3.org/1999/xlink">
<g id="graph0" class="graph" transform="scale(1 1) rotate(0) translate(18 208.55)">
<title>G</title>
<polygon fill="white" stroke="none" points="-18,18 -18,-208.55 327.27,-208.55 327.27,18 -18,18"/>
<text xml:space="preserve" text-anchor="middle" x="74" y="-173.25" font-family="Times New Roman,serif" font-size="14.00">ac pooling after reduced</text>
<!-- c_0&#45;&gt;c_1 -->
<g id="edge1" class="edge">
<title>c_0&#45;&gt;c_1</title>
<path fill="none" stroke="#59a14f" stroke-width="0.55" stroke-opacity="0.533333" d="M257.76,-115.3C241.53,-119.83 211.39,-134.05 195.29,-144.55"/>
<polygon fill="#59a14f" fill-opacity="0.533333" stroke="#59a14f" stroke-width="0.55" stroke-opacity="0.533333" points="194.78,-143.42 192.57,-146.4 196.16,-145.44 194.78,-143.42"/>
</g>
<!-- c_0&#45;&gt;c_6 -->
<g id="edge13" class="edge">
<title>c_0&#45;&gt;c_6</title>
<path fill="none" stroke="#59a14f" stroke-width="0.55" stroke-opacity="0.533333" d="M261.24,-106.9C251.93,-96.81 235.93,-79.45 225.5,-68.14"/>
<polygon fill="#59a14f" fill-opacity="0.533333" stroke="#59a14f" stroke-width="0.55" stroke-opacity="0.533333" points="226.55,-67.47 223.28,-65.73 224.75,-69.13 226.55,-67.47"/>
</g>
<!-- c_1&#45;&gt;c_0 -->
<g id="edge2" class="edge">
<title>c_1&#45;&gt;c_0</title>
<path fill="none" stroke="#59a14f" stroke-width="0.55" stroke-opacity="0.533333" d="M195.49,-154.87C211.72,-150.35 241.86,-136.13 257.96,-125.62"/>
<polygon fill="#59a14f" fill-opacity="0.533333" stroke="#59a14f" stroke-width="0.55" stroke-opacity="0.533333" points="258.47,-126.76 260.68,-123.78 257.1,-124.73 258.47,-126.76"/>
</g>
<!-- c_1&#45;&gt;c_3 -->
<g id="edge12" class="edge">
<title>c_1&#45;&gt;c_3</title>
<path fill="none" stroke="#4e79a7" stroke-width="0.55" stroke-opacity="0.533333" d="M176.53,-148.02C162.97,-135.91 135.63,-111.47 120.25,-97.72"/>
<polygon fill="#4e79a7" fill-opacity="0.533333" stroke="#4e79a7" stroke-width="0.55" stroke-opacity="0.533333" points="121.39,-97.1 117.96,-95.68 119.75,-98.92 121.39,-97.1"/>
</g>
<!-- c_2&#45;&gt;c_3 -->
<g id="edge5" class="edge">
<title>c_2&#45;&gt;c_3</title>
<path fill="none" stroke="#4e79a7" stroke-width="0.55" stroke-opacity="0.533333" d="M56.63,-21.57C64.06,-37.13 83.79,-65.19 97.04,-79.34"/>
<polygon fill="#4e79a7" fill-opacity="0.533333" stroke="#4e79a7" stroke-width="0.55" stroke-opacity="0.533333" points="96.02,-80.05 99.34,-81.7 97.78,-78.34 96.02,-80.05"/>
</g>
<!-- c_3&#45;&gt;c_2 -->
<g id="edge6" class="edge">
<title>c_3&#45;&gt;c_2</title>
<path fill="none" stroke="#4e79a7" stroke-width="0.55" stroke-opacity="0.533333" d="M106.79,-76.98C99.36,-61.42 79.62,-33.36 66.38,-19.21"/>
<polygon fill="#4e79a7" fill-opacity="0.533333" stroke="#4e79a7" stroke-width="0.55" stroke-opacity="0.533333" points="67.39,-18.49 64.07,-16.84 65.64,-20.2 67.39,-18.49"/>
</g>
<!-- c_3&#45;&gt;c_4 -->
<g id="edge9" class="edge">
<title>c_3&#45;&gt;c_4</title>
<path fill="none" stroke="#4e79a7" stroke-width="0.55" stroke-opacity="0.533333" d="M98.03,-86.76C79.43,-89.3 42.14,-100.79 22.88,-109.7"/>
<polygon fill="#4e79a7" fill-opacity="0.533333" stroke="#4e79a7" stroke-width="0.55" stroke-opacity="0.533333" points="22.64,-108.45 20.03,-111.08 23.71,-110.66 22.64,-108.45"/>
</g>
<!-- c_3&#45;&gt;c_6 -->
<g id="edge7" class="edge">
<title>c_3&#45;&gt;c_6</title>
<path fill="none" stroke="#59a14f" stroke-width="0.55" stroke-opacity="0.533333" d="M120.03,-88.88C139.93,-86.58 181.79,-74.74 202.81,-65.69"/>
<polygon fill="#59a14f" fill-opacity="0.533333" stroke="#59a14f" stroke-width="0.55" stroke-opacity="0.533333" points="203.28,-66.82 205.96,-64.26 202.27,-64.59 203.28,-66.82"/>
</g>
<!-- c_4&#45;&gt;c_3 -->
<g id="edge10" class="edge">
<title>c_4&#45;&gt;c_3</title>
<path fill="none" stroke="#4e79a7" stroke-width="0.55" stroke-opacity="0.533333" d="M21.85,-119.52C40.45,-116.98 77.75,-105.5 97.01,-96.59"/>
<polygon fill="#4e79a7" fill-opacity="0.533333" stroke="#4e79a7" stroke-width="0.55" stroke-opacity="0.533333" points="97.24,-97.83 99.86,-95.21 96.18,-95.63 97.24,-97.83"/>
</g>
<!-- c_6&#45;&gt;c_3 -->
<g id="edge8" class="edge">
<title>c_6&#45;&gt;c_3</title>
<path fill="none" stroke="#59a14f" stroke-width="0.55" stroke-opacity="0.533333" d="M204.42,-56.02C184.53,-58.32 142.67,-70.16 121.65,-79.21"/>
<polygon fill="#59a14f" fill-opacity="0.533333" stroke="#59a14f" stroke-width="0.55" stroke-opacity="0.533333" points="121.18,-78.08 118.49,-80.64 122.19,-80.31 121.18,-78.08"/>
</g>
<!-- c_6&#45;&gt;c_7 -->
<g id="edge4" class="edge">
<title>c_6&#45;&gt;c_7</title>
<path fill="none" stroke="#59a14f" stroke-width="0.55" stroke-opacity="0.533333" d="M226.12,-59.64C241.4,-59.32 269.29,-53.94 285.63,-48.33"/>
<polygon fill="#59a14f" fill-opacity="0.533333" stroke="#59a14f" stroke-width="0.55" stroke-opacity="0.533333" points="285.87,-49.55 288.74,-47.19 285.03,-47.25 285.87,-49.55"/>
</g>
<!-- c_7&#45;&gt;c_0 -->
<g id="edge11" class="edge">
<title>c_7&#45;&gt;c_0</title>
<path fill="none" stroke="#f28e2b" stroke-width="0.55" stroke-opacity="0.533333" d="M294.45,-50.51C289.21,-63.57 280.05,-86.45 274.17,-101.14"/>
<polygon fill="#f28e2b" fill-opacity="0.533333" stroke="#f28e2b" stroke-width="0.55" stroke-opacity="0.533333" points="273.08,-100.57 272.91,-104.27 275.35,-101.48 273.08,-100.57"/>
</g>
<!-- c_7&#45;&gt;c_6 -->
<g id="edge3" class="edge">
<title>c_7&#45;&gt;c_6</title>
<path fill="none" stroke="#59a14f" stroke-width="0.55" stroke-opacity="0.533333" d="M287.71,-37.98C272.44,-38.3 244.54,-43.68 228.21,-49.29"/>
<polygon fill="#59a14f" fill-opacity="0.533333" stroke="#59a14f" stroke-width="0.55" stroke-opacity="0.533333" points="227.96,-48.07 225.1,-50.43 228.81,-50.37 227.96,-48.07"/>
</g>
<!-- c_0 -->
<g id="node1" class="node">
<title>c_0</title>
<g id="a_node1"><a xlink:title="X_T(s); H_T(s); CH3_T(s); CH2_T(s); CH_T(s); C_T(s); C2H4_T(s); C2H2_T(s); C2H_T(s); C2_T(s); X_S(s); H_S(s); CH3_S(s); CH2_S(s); CH_S(s); C_S(s); C2H4_S(s); C2H2_S(s); C2H_S(s); C2_S(s); X_K(s); H_K(s); CH3_K(s); CH2_K(s); CH_K(s); C_K(s); C2H4_K(s); C2H2_K(s); C2H_K(s); C2_K(s); X_D(s); H_D(s); CH3_D(s); CH2_D(s); CH_D(s); C_D(s); C2H4_D(s); C2H2_D(s); C2H_D(s)">
<ellipse fill="#f28e2b" stroke="#263238" stroke-width="0.6" cx="268.64" cy="-114.93" rx="10.8" ry="10.8"/>
<text xml:space="preserve" text-anchor="middle" x="268.64" y="-112.4" font-family="Helvetica,sans-Serif" font-size="7.00">N1</text>
</a>
</g>
</g>
<!-- c_1 -->
<g id="node2" class="node">
<title>c_1</title>
<g id="a_node2"><a xlink:title="H2; H; OH; H2O; HO2; H2O2; CH; CH2; CH2(S); CH3; CH4; HCO; CH2O; CH2OH; CH3O; CH3OH; C2H; C2H2; C2H3; C2H4; C2H5; C2H6; HCCO; CH2CO; HCCOH; NH; NH2; NH3; NNH; HNO; HCN; H2CN; HCNN; HCNO; HOCN; HNCO; C3H7; C3H8; CH2CHO; CH3CHO">
<ellipse fill="#4e79a7" stroke="#263238" stroke-width="0.6" cx="184.61" cy="-155.25" rx="10.8" ry="10.8"/>
<text xml:space="preserve" text-anchor="middle" x="184.61" y="-152.72" font-family="Helvetica,sans-Serif" font-size="7.00">N2</text>
</a>
</g>
</g>
<!-- c_2 -->
<g id="node3" class="node">
<title>c_2</title>
<g id="a_node3"><a xlink:title="O; O2; CO; CO2; NO; NO2; N2O; NCO">
<ellipse fill="#4e79a7" stroke="#263238" stroke-width="0.6" cx="54.33" cy="-10.8" rx="10.8" ry="10.8"/>
<text xml:space="preserve" text-anchor="middle" x="54.33" y="-8.28" font-family="Helvetica,sans-Serif" font-size="7.00">N3</text>
</a>
</g>
</g>
<!-- c_3 -->
<g id="node4" class="node">
<title>c_3</title>
<g id="a_node4"><a xlink:title="C; CN">
<ellipse fill="#4e79a7" stroke="#263238" stroke-width="0.6" cx="109.09" cy="-87.75" rx="10.8" ry="10.8"/>
<text xml:space="preserve" text-anchor="middle" x="109.09" y="-85.22" font-family="Helvetica,sans-Serif" font-size="7.00">N4</text>
</a>
</g>
</g>
<!-- c_4 -->
<g id="node5" class="node">
<title>c_4</title>
<g id="a_node5"><a xlink:title="N; N2">
<ellipse fill="#4e79a7" stroke="#263238" stroke-width="0.6" cx="10.8" cy="-118.54" rx="10.8" ry="10.8"/>
<text xml:space="preserve" text-anchor="middle" x="10.8" y="-116.01" font-family="Helvetica,sans-Serif" font-size="7.00">N5</text>
</a>
</g>
</g>
<!-- c_6 -->
<g id="node6" class="node">
<title>c_6</title>
<g id="a_node6"><a xlink:title="C_bulk">
<ellipse fill="#59a14f" stroke="#263238" stroke-width="0.6" cx="215.37" cy="-57.15" rx="10.8" ry="10.8"/>
<text xml:space="preserve" text-anchor="middle" x="215.37" y="-54.63" font-family="Helvetica,sans-Serif" font-size="7.00">N6</text>
</a>
</g>
</g>
<!-- c_7 -->
<g id="node7" class="node">
<title>c_7</title>
<g id="a_node7"><a xlink:title="C2_D(s)">
<ellipse fill="#f28e2b" stroke="#263238" stroke-width="0.6" cx="298.47" cy="-40.47" rx="10.8" ry="10.8"/>
<text xml:space="preserve" text-anchor="middle" x="298.47" y="-37.94" font-family="Helvetica,sans-Serif" font-size="7.00">N7</text>
</a>
</g>
</g>
</g>
</svg>
