<?xml version="1.0" encoding="UTF-8" standalone="no"?>
<!DOCTYPE svg PUBLIC "-//W3C//DTD SVG 1.1//EN"
 "http://www.w3.org/Graphics/SVG/1.1/DTD/svg11.dtd">
<!-- Generated by graphviz version 14.1.4 (20260321.0153)
 -->
<!-- Title: G Pages: 1 -->
<svg width="409pt" height="265pt"
 viewBox="0.00 0.00 409.00 265.00" xmlns="http://www.w3.org/2000/svg" xmlns:xlink="http://www.w3.org/1999/xlink">
<g id="graph0" class="graph" transform="scale(1 1) rotate(0) translate(18 247.12)">
<title>G</title>
<polygon fill="white" stroke="none" points="-18,18 -18,-247.12 390.82,-247.12 390.82,18 -18,18"/>
<text xml:space="preserve" text-anchor="middle" x="80" y="-211.82" font-family="Times New Roman,serif" font-size="14.00">ac learnckpp after reduced</text>
<!-- c_0&#45;&gt;c_2 -->
<g id="edge7" class="edge">
<title>c_0&#45;&gt;c_2</title>
<path fill="none" stroke="#f28e2b" stroke-width="0.55" stroke-opacity="0.533333" d="M71.39,-158.39C60.52,-157.74 43.34,-159.78 31.48,-162.96"/>
<polygon fill="#f28e2b" fill-opacity="0.533333" stroke="#f28e2b" stroke-width="0.55" stroke-opacity="0.533333" points="31.18,-161.77 28.18,-163.94 31.88,-164.12 31.18,-161.77"/>
</g>
<!-- c_0&#45;&gt;c_4 -->
<g id="edge14" class="edge">
<title>c_0&#45;&gt;c_4</title>
<path fill="none" stroke="#f28e2b" stroke-width="0.55" stroke-opacity="0.533333" d="M76.49,-152.6C65.5,-140.64 40.46,-121.4 24.57,-112.49"/>
<polygon fill="#f28e2b" fill-opacity="0.533333" stroke="#f28e2b" stroke-width="0.55" stroke-opacity="0.533333" points="25.53,-111.62 21.86,-111.05 24.37,-113.78 25.53,-111.62"/>
</g>
<!-- c_0&#45;&gt;c_6 -->
<g id="edge17" class="edge">
<title>c_0&#45;&gt;c_6</title>
<path fill="none" stroke="#59a14f" stroke-width="0.55" stroke-opacity="0.533333" d="M88.43,-170.51C96.26,-175.77 109.26,-181.47 119.52,-184.28"/>
<polygon fill="#59a14f" fill-opacity="0.533333" stroke="#59a14f" stroke-width="0.55" stroke-opacity="0.533333" points="119.22,-185.47 122.91,-185.1 119.8,-183.09 119.22,-185.47"/>
</g>
<!-- c_0&#45;&gt;c_16 -->
<g id="edge4" class="edge">
<title>c_0&#45;&gt;c_16</title>
<path fill="none" stroke="#59a14f" stroke-width="0.55" stroke-opacity="0.533333" d="M92.54,-160.55C110.81,-157.97 147.67,-152.76 168.35,-149.84"/>
<polygon fill="#59a14f" fill-opacity="0.533333" stroke="#59a14f" stroke-width="0.55" stroke-opacity="0.533333" points="168.39,-151.07 171.69,-149.36 168.05,-148.64 168.39,-151.07"/>
</g>
<!-- c_1&#45;&gt;c_5 -->
<g id="edge18" class="edge">
<title>c_1&#45;&gt;c_5</title>
<path fill="none" stroke="#59a14f" stroke-width="0.55" stroke-opacity="0.533333" d="M175.1,-99.04C194.18,-104.04 234.41,-114.58 256.11,-120.27"/>
<polygon fill="#59a14f" fill-opacity="0.533333" stroke="#59a14f" stroke-width="0.55" stroke-opacity="0.533333" points="255.69,-121.43 259.39,-121.13 256.31,-119.06 255.69,-121.43"/>
</g>
<!-- c_1&#45;&gt;c_6 -->
<g id="edge21" class="edge">
<title>c_1&#45;&gt;c_6</title>
<path fill="none" stroke="#59a14f" stroke-width="0.55" stroke-opacity="0.533333" d="M160.99,-106.7C155.64,-122.44 145.51,-152.29 139.5,-170.01"/>
<polygon fill="#59a14f" fill-opacity="0.533333" stroke="#59a14f" stroke-width="0.55" stroke-opacity="0.533333" points="138.44,-169.31 138.48,-173.02 140.76,-170.1 138.44,-169.31"/>
</g>
<!-- c_1&#45;&gt;c_16 -->
<g id="edge2" class="edge">
<title>c_1&#45;&gt;c_16</title>
<path fill="none" stroke="#59a14f" stroke-width="0.55" stroke-opacity="0.533333" d="M162.85,-107.04C164.24,-115.9 168.55,-128.32 173.16,-137.13"/>
<polygon fill="#59a14f" fill-opacity="0.533333" stroke="#59a14f" stroke-width="0.55" stroke-opacity="0.533333" points="171.96,-137.49 174.74,-139.93 174.09,-136.28 171.96,-137.49"/>
</g>
<!-- c_1&#45;&gt;c_32 -->
<g id="edge22" class="edge">
<title>c_1&#45;&gt;c_32</title>
<path fill="none" stroke="#59a14f" stroke-width="0.55" stroke-opacity="0.533333" d="M153.5,-96.32C136.27,-96.39 102.91,-96.54 83.47,-96.62"/>
<polygon fill="#59a14f" fill-opacity="0.533333" stroke="#59a14f" stroke-width="0.55" stroke-opacity="0.533333" points="83.64,-95.4 80.15,-96.64 83.65,-97.85 83.64,-95.4"/>
</g>
<!-- c_2&#45;&gt;c_0 -->
<g id="edge8" class="edge">
<title>c_2&#45;&gt;c_0</title>
<path fill="none" stroke="#f28e2b" stroke-width="0.55" stroke-opacity="0.533333" d="M28.6,-174.14C39.47,-174.79 56.65,-172.75 68.51,-169.57"/>
<polygon fill="#f28e2b" fill-opacity="0.533333" stroke="#f28e2b" stroke-width="0.55" stroke-opacity="0.533333" points="68.81,-170.76 71.81,-168.59 68.11,-168.41 68.81,-170.76"/>
</g>
<!-- c_2&#45;&gt;c_32 -->
<g id="edge5" class="edge">
<title>c_2&#45;&gt;c_32</title>
<path fill="none" stroke="#59a14f" stroke-width="0.55" stroke-opacity="0.533333" d="M24.47,-161.4C33.33,-148.35 49.74,-124.18 59.81,-109.36"/>
<polygon fill="#59a14f" fill-opacity="0.533333" stroke="#59a14f" stroke-width="0.55" stroke-opacity="0.533333" points="60.8,-110.08 61.76,-106.49 58.78,-108.7 60.8,-110.08"/>
</g>
<!-- c_3&#45;&gt;c_1 -->
<g id="edge3" class="edge">
<title>c_3&#45;&gt;c_1</title>
<path fill="none" stroke="#f28e2b" stroke-width="0.55" stroke-opacity="0.533333" d="M161.06,-21.62C161.76,-36.7 163.03,-64.08 163.83,-81.15"/>
<polygon fill="#f28e2b" fill-opacity="0.533333" stroke="#f28e2b" stroke-width="0.55" stroke-opacity="0.533333" points="162.59,-80.99 163.98,-84.43 165.04,-80.88 162.59,-80.99"/>
</g>
<!-- c_4&#45;&gt;c_0 -->
<g id="edge13" class="edge">
<title>c_4&#45;&gt;c_0</title>
<path fill="none" stroke="#f28e2b" stroke-width="0.55" stroke-opacity="0.533333" d="M15.98,-117.82C26.96,-129.78 52.01,-149.02 67.9,-157.93"/>
<polygon fill="#f28e2b" fill-opacity="0.533333" stroke="#f28e2b" stroke-width="0.55" stroke-opacity="0.533333" points="66.94,-158.8 70.6,-159.37 68.09,-156.64 66.94,-158.8"/>
</g>
<!-- c_4&#45;&gt;c_32 -->
<g id="edge6" class="edge">
<title>c_4&#45;&gt;c_32</title>
<path fill="none" stroke="#59a14f" stroke-width="0.55" stroke-opacity="0.533333" d="M21.64,-106.14C30.65,-104.32 43.57,-101.71 53.55,-99.69"/>
<polygon fill="#59a14f" fill-opacity="0.533333" stroke="#59a14f" stroke-width="0.55" stroke-opacity="0.533333" points="53.63,-100.93 56.81,-99.03 53.14,-98.53 53.63,-100.93"/>
</g>
<!-- c_5&#45;&gt;c_9 -->
<g id="edge9" class="edge">
<title>c_5&#45;&gt;c_9</title>
<path fill="none" stroke="#4e79a7" stroke-width="0.55" stroke-opacity="0.533333" d="M281.24,-127.61C297.9,-129.01 330.33,-126.28 348.63,-122.13"/>
<polygon fill="#4e79a7" fill-opacity="0.533333" stroke="#4e79a7" stroke-width="0.55" stroke-opacity="0.533333" points="348.62,-123.39 351.72,-121.36 348.03,-121.02 348.62,-123.39"/>
</g>
<!-- c_5&#45;&gt;c_16 -->
<g id="edge20" class="edge">
<title>c_5&#45;&gt;c_16</title>
<path fill="none" stroke="#4e79a7" stroke-width="0.55" stroke-opacity="0.533333" d="M259.88,-122.44C243.51,-123.89 212.66,-132.01 195.52,-139.2"/>
<polygon fill="#4e79a7" fill-opacity="0.533333" stroke="#4e79a7" stroke-width="0.55" stroke-opacity="0.533333" points="195.35,-137.93 192.65,-140.47 196.34,-140.17 195.35,-137.93"/>
</g>
<!-- c_6&#45;&gt;c_0 -->
<g id="edge16" class="edge">
<title>c_6&#45;&gt;c_0</title>
<path fill="none" stroke="#59a14f" stroke-width="0.55" stroke-opacity="0.533333" d="M127.91,-175.81C120.08,-170.55 107.07,-164.85 96.82,-162.04"/>
<polygon fill="#59a14f" fill-opacity="0.533333" stroke="#59a14f" stroke-width="0.55" stroke-opacity="0.533333" points="97.11,-160.85 93.42,-161.21 96.54,-163.23 97.11,-160.85"/>
</g>
<!-- c_9&#45;&gt;c_5 -->
<g id="edge10" class="edge">
<title>c_9&#45;&gt;c_5</title>
<path fill="none" stroke="#4e79a7" stroke-width="0.55" stroke-opacity="0.533333" d="M351.5,-112.39C334.84,-110.99 302.41,-113.71 284.11,-117.87"/>
<polygon fill="#4e79a7" fill-opacity="0.533333" stroke="#4e79a7" stroke-width="0.55" stroke-opacity="0.533333" points="284.12,-116.61 281.02,-118.64 284.71,-118.98 284.12,-116.61"/>
</g>
<!-- c_12&#45;&gt;c_5 -->
<g id="edge11" class="edge">
<title>c_12&#45;&gt;c_5</title>
<path fill="none" stroke="#4e79a7" stroke-width="0.55" stroke-opacity="0.533333" d="M326.51,-185.82C315.21,-173.32 293.33,-149.12 280.59,-135.02"/>
<polygon fill="#4e79a7" fill-opacity="0.533333" stroke="#4e79a7" stroke-width="0.55" stroke-opacity="0.533333" points="281.68,-134.4 278.42,-132.62 279.86,-136.04 281.68,-134.4"/>
</g>
<!-- c_16&#45;&gt;c_1 -->
<g id="edge1" class="edge">
<title>c_16&#45;&gt;c_1</title>
<path fill="none" stroke="#59a14f" stroke-width="0.55" stroke-opacity="0.533333" d="M184.99,-136.95C183.6,-128.09 179.29,-115.67 174.68,-106.86"/>
<polygon fill="#59a14f" fill-opacity="0.533333" stroke="#59a14f" stroke-width="0.55" stroke-opacity="0.533333" points="175.88,-106.5 173.1,-104.05 173.75,-107.71 175.88,-106.5"/>
</g>
<!-- c_16&#45;&gt;c_5 -->
<g id="edge19" class="edge">
<title>c_16&#45;&gt;c_5</title>
<path fill="none" stroke="#4e79a7" stroke-width="0.55" stroke-opacity="0.533333" d="M194.16,-149.38C210.52,-147.93 241.37,-139.81 258.51,-132.63"/>
<polygon fill="#4e79a7" fill-opacity="0.533333" stroke="#4e79a7" stroke-width="0.55" stroke-opacity="0.533333" points="258.68,-133.89 261.39,-131.35 257.69,-131.65 258.68,-133.89"/>
</g>
<!-- c_18&#45;&gt;c_5 -->
<g id="edge12" class="edge">
<title>c_18&#45;&gt;c_5</title>
<path fill="none" stroke="#4e79a7" stroke-width="0.55" stroke-opacity="0.533333" d="M269.27,-174.76C269.55,-164.84 269.97,-150.2 270.29,-139.2"/>
<polygon fill="#4e79a7" fill-opacity="0.533333" stroke="#4e79a7" stroke-width="0.55" stroke-opacity="0.533333" points="271.51,-139.4 270.38,-135.86 269.06,-139.33 271.51,-139.4"/>
</g>
<!-- c_20&#45;&gt;c_5 -->
<g id="edge15" class="edge">
<title>c_20&#45;&gt;c_5</title>
<path fill="none" stroke="#4e79a7" stroke-width="0.55" stroke-opacity="0.533333" d="M310.95,-66.81C302.8,-78.43 288.5,-98.78 279.33,-111.83"/>
<polygon fill="#4e79a7" fill-opacity="0.533333" stroke="#4e79a7" stroke-width="0.55" stroke-opacity="0.533333" points="278.38,-111.06 277.37,-114.63 280.39,-112.47 278.38,-111.06"/>
</g>
<!-- c_0 -->
<g id="node1" class="node">
<title>c_0</title>
<g id="a_node1"><a xlink:title="X_T(s); H_T(s); X_S(s); H_S(s); X_K(s); H_K(s); X_D(s); H_D(s)">
<ellipse fill="#f28e2b" stroke="#263238" stroke-width="0.6" cx="81.67" cy="-162.09" rx="10.8" ry="10.8"/>
<text xml:space="preserve" text-anchor="middle" x="81.67" y="-159.56" font-family="Helvetica,sans-Serif" font-size="7.00">N1</text>
</a>
</g>
</g>
<!-- c_1 -->
<g id="node2" class="node">
<title>c_1</title>
<g id="a_node2"><a xlink:title="CH3_T(s); CH2_T(s); CH_T(s); C2H2_T(s); C2H_T(s); CH3_S(s); CH2_S(s); CH_S(s); C2H2_S(s); C2H_S(s); CH3_K(s); CH2_K(s); CH_K(s); C2H2_K(s); C2H_K(s); CH3_D(s); CH2_D(s); CH_D(s); C2H2_D(s); C2H_D(s)">
<ellipse fill="#f28e2b" stroke="#263238" stroke-width="0.6" cx="164.53" cy="-96.27" rx="10.8" ry="10.8"/>
<text xml:space="preserve" text-anchor="middle" x="164.53" y="-93.74" font-family="Helvetica,sans-Serif" font-size="7.00">N2</text>
</a>
</g>
</g>
<!-- c_2 -->
<g id="node3" class="node">
<title>c_2</title>
<g id="a_node3"><a xlink:title="C_T(s); C_S(s); C_K(s); C_D(s)">
<ellipse fill="#f28e2b" stroke="#263238" stroke-width="0.6" cx="18.33" cy="-170.45" rx="10.8" ry="10.8"/>
<text xml:space="preserve" text-anchor="middle" x="18.33" y="-167.92" font-family="Helvetica,sans-Serif" font-size="7.00">N3</text>
</a>
</g>
</g>
<!-- c_3 -->
<g id="node4" class="node">
<title>c_3</title>
<g id="a_node4"><a xlink:title="C2H4_T(s); C2H4_S(s); C2H4_K(s); C2H4_D(s)">
<ellipse fill="#f28e2b" stroke="#263238" stroke-width="0.6" cx="160.56" cy="-10.8" rx="10.8" ry="10.8"/>
<text xml:space="preserve" text-anchor="middle" x="160.56" y="-8.28" font-family="Helvetica,sans-Serif" font-size="7.00">N4</text>
</a>
</g>
</g>
<!-- c_4 -->
<g id="node5" class="node">
<title>c_4</title>
<g id="a_node5"><a xlink:title="C2_T(s); C2_S(s); C2_K(s); C2_D(s)">
<ellipse fill="#f28e2b" stroke="#263238" stroke-width="0.6" cx="10.8" cy="-108.33" rx="10.8" ry="10.8"/>
<text xml:space="preserve" text-anchor="middle" x="10.8" y="-105.81" font-family="Helvetica,sans-Serif" font-size="7.00">N5</text>
</a>
</g>
</g>
<!-- c_5 -->
<g id="node6" class="node">
<title>c_5</title>
<g id="a_node6"><a xlink:title="H2">
<ellipse fill="#4e79a7" stroke="#263238" stroke-width="0.6" cx="270.72" cy="-124.1" rx="10.8" ry="10.8"/>
<text xml:space="preserve" text-anchor="middle" x="270.72" y="-121.57" font-family="Helvetica,sans-Serif" font-size="7.00">N6</text>
</a>
</g>
</g>
<!-- c_6 -->
<g id="node7" class="node">
<title>c_6</title>
<g id="a_node7"><a xlink:title="H">
<ellipse fill="#4e79a7" stroke="#263238" stroke-width="0.6" cx="134.67" cy="-184.23" rx="10.8" ry="10.8"/>
<text xml:space="preserve" text-anchor="middle" x="134.67" y="-181.71" font-family="Helvetica,sans-Serif" font-size="7.00">N7</text>
</a>
</g>
</g>
<!-- c_9 -->
<g id="node8" class="node">
<title>c_9</title>
<g id="a_node8"><a xlink:title="OH">
<ellipse fill="#4e79a7" stroke="#263238" stroke-width="0.6" cx="362.02" cy="-115.9" rx="10.8" ry="10.8"/>
<text xml:space="preserve" text-anchor="middle" x="362.02" y="-113.37" font-family="Helvetica,sans-Serif" font-size="7.00">N8</text>
</a>
</g>
</g>
<!-- c_12 -->
<g id="node9" class="node">
<title>c_12</title>
<g id="a_node9"><a xlink:title="CH">
<ellipse fill="#4e79a7" stroke="#263238" stroke-width="0.6" cx="333.74" cy="-193.82" rx="10.8" ry="10.8"/>
<text xml:space="preserve" text-anchor="middle" x="333.74" y="-191.29" font-family="Helvetica,sans-Serif" font-size="7.00">N9</text>
</a>
</g>
</g>
<!-- c_16 -->
<g id="node10" class="node">
<title>c_16</title>
<g id="a_node10"><a xlink:title="CH2; CH2(S); CH3; CH4; C2H; C2H2; C2H3; C2H4; C2H5; C2H6; C3H7; C3H8">
<ellipse fill="#4e79a7" stroke="#263238" stroke-width="0.6" cx="183.31" cy="-147.72" rx="10.8" ry="10.8"/>
<text xml:space="preserve" text-anchor="middle" x="183.31" y="-145.2" font-family="Helvetica,sans-Serif" font-size="7.00">N10</text>
</a>
</g>
</g>
<!-- c_18 -->
<g id="node11" class="node">
<title>c_18</title>
<g id="a_node11"><a xlink:title="NH">
<ellipse fill="#4e79a7" stroke="#263238" stroke-width="0.6" cx="268.95" cy="-185.78" rx="10.8" ry="10.8"/>
<text xml:space="preserve" text-anchor="middle" x="268.95" y="-183.26" font-family="Helvetica,sans-Serif" font-size="7.00">N11</text>
</a>
</g>
</g>
<!-- c_20 -->
<g id="node12" class="node">
<title>c_20</title>
<g id="a_node12"><a xlink:title="NNH">
<ellipse fill="#4e79a7" stroke="#263238" stroke-width="0.6" cx="317.23" cy="-57.88" rx="10.8" ry="10.8"/>
<text xml:space="preserve" text-anchor="middle" x="317.23" y="-55.36" font-family="Helvetica,sans-Serif" font-size="7.00">N12</text>
</a>
</g>
</g>
<!-- c_32 -->
<g id="node13" class="node">
<title>c_32</title>
<g id="a_node13"><a xlink:title="C_bulk">
<ellipse fill="#59a14f" stroke="#263238" stroke-width="0.6" cx="68.42" cy="-96.69" rx="10.8" ry="10.8"/>
<text xml:space="preserve" text-anchor="middle" x="68.42" y="-94.16" font-family="Helvetica,sans-Serif" font-size="7.00">N13</text>
</a>
</g>
</g>
</g>
</svg>
