<?xml version="1.0" encoding="UTF-8" standalone="no"?>
<!DOCTYPE svg PUBLIC "-//W3C//DTD SVG 1.1//EN"
 "http://www.w3.org/Graphics/SVG/1.1/DTD/svg11.dtd">
<!-- Generated by graphviz version 14.1.4 (20260321.0153)
 -->
<!-- Title: G Pages: 1 -->
<svg width="430pt" height="236pt"
 viewBox="0.00 0.00 430.00 236.00" xmlns="http://www.w3.org/2000/svg" xmlns:xlink="http://www.w3.org/1999/xlink">
<g id="graph0" class="graph" transform="scale(1 1) rotate(0) translate(18 218.1)">
<title>G</title>
<polygon fill="white" stroke="none" points="-18,18 -18,-218.1 411.5,-218.1 411.5,18 -18,18"/>
<text xml:space="preserve" text-anchor="middle" x="84.12" y="-182.8" font-family="Times New Roman,serif" font-size="14.00">sif4 learnckpp after reduced</text>
<!-- c_1&#45;&gt;c_26 -->
<g id="edge8" class="edge">
<title>c_1&#45;&gt;c_26</title>
<path fill="none" stroke="#59a14f" stroke-width="0.55" stroke-opacity="0.533333" d="M266.75,-16.65C277.55,-23.44 295.43,-34.68 307.58,-42.32"/>
<polygon fill="#59a14f" fill-opacity="0.533333" stroke="#59a14f" stroke-width="0.55" stroke-opacity="0.533333" points="306.83,-43.3 310.44,-44.12 308.13,-41.22 306.83,-43.3"/>
</g>
<!-- c_2&#45;&gt;c_27 -->
<g id="edge6" class="edge">
<title>c_2&#45;&gt;c_27</title>
<path fill="none" stroke="#59a14f" stroke-width="0.55" stroke-opacity="0.533333" d="M189.77,-164.8C170.74,-164.8 131.52,-164.8 109.91,-164.8"/>
<polygon fill="#59a14f" fill-opacity="0.533333" stroke="#59a14f" stroke-width="0.55" stroke-opacity="0.533333" points="110.17,-163.58 106.67,-164.8 110.17,-166.03 110.17,-163.58"/>
</g>
<!-- c_3&#45;&gt;c_26 -->
<g id="edge7" class="edge">
<title>c_3&#45;&gt;c_26</title>
<path fill="none" stroke="#59a14f" stroke-width="0.55" stroke-opacity="0.533333" d="M289.53,-79.81C295.31,-74.32 303.26,-66.79 309.65,-60.72"/>
<polygon fill="#59a14f" fill-opacity="0.533333" stroke="#59a14f" stroke-width="0.55" stroke-opacity="0.533333" points="310.34,-61.75 312.04,-58.45 308.66,-59.97 310.34,-61.75"/>
</g>
<!-- c_5&#45;&gt;c_26 -->
<g id="edge9" class="edge">
<title>c_5&#45;&gt;c_26</title>
<path fill="none" stroke="#59a14f" stroke-width="0.55" stroke-opacity="0.533333" d="M250.76,-90.46C256.76,-86.71 264.77,-81.76 271.95,-77.55 283.71,-70.64 297.27,-63.11 307.06,-57.73"/>
<polygon fill="#59a14f" fill-opacity="0.533333" stroke="#59a14f" stroke-width="0.55" stroke-opacity="0.533333" points="307.54,-58.87 310.02,-56.12 306.36,-56.72 307.54,-58.87"/>
</g>
<!-- c_8&#45;&gt;c_18 -->
<g id="edge11" class="edge">
<title>c_8&#45;&gt;c_18</title>
<path fill="none" stroke="#4e79a7" stroke-width="0.55" stroke-opacity="0.533333" d="M80.69,-60.98C73.26,-53.3 61.8,-41.45 53.44,-32.81"/>
<polygon fill="#4e79a7" fill-opacity="0.533333" stroke="#4e79a7" stroke-width="0.55" stroke-opacity="0.533333" points="54.41,-32.04 51.09,-30.38 52.65,-33.75 54.41,-32.04"/>
</g>
<!-- c_10&#45;&gt;c_1 -->
<g id="edge3" class="edge">
<title>c_10&#45;&gt;c_1</title>
<path fill="none" stroke="#59a14f" stroke-width="0.55" stroke-opacity="0.533333" d="M201.73,-54.41C213.02,-45.56 232.82,-30.07 245.52,-20.14"/>
<polygon fill="#59a14f" fill-opacity="0.533333" stroke="#59a14f" stroke-width="0.55" stroke-opacity="0.533333" points="246.24,-21.12 248.24,-18 244.73,-19.2 246.24,-21.12"/>
</g>
<!-- c_10&#45;&gt;c_3 -->
<g id="edge1" class="edge">
<title>c_10&#45;&gt;c_3</title>
<path fill="none" stroke="#59a14f" stroke-width="0.55" stroke-opacity="0.533333" d="M203.56,-64.29C219.41,-68.96 249.49,-77.8 267.34,-83.05"/>
<polygon fill="#59a14f" fill-opacity="0.533333" stroke="#59a14f" stroke-width="0.55" stroke-opacity="0.533333" points="266.67,-84.13 270.37,-83.94 267.36,-81.78 266.67,-84.13"/>
</g>
<!-- c_10&#45;&gt;c_5 -->
<g id="edge2" class="edge">
<title>c_10&#45;&gt;c_5</title>
<path fill="none" stroke="#59a14f" stroke-width="0.55" stroke-opacity="0.533333" d="M201.93,-67.64C209.57,-73.19 220.69,-81.24 229.19,-87.41"/>
<polygon fill="#59a14f" fill-opacity="0.533333" stroke="#59a14f" stroke-width="0.55" stroke-opacity="0.533333" points="228.43,-88.37 231.98,-89.43 229.87,-86.38 228.43,-88.37"/>
</g>
<!-- c_10&#45;&gt;c_8 -->
<g id="edge4" class="edge">
<title>c_10&#45;&gt;c_8</title>
<path fill="none" stroke="#4e79a7" stroke-width="0.55" stroke-opacity="0.533333" d="M182.21,-61.98C163.45,-63.32 124.86,-66.09 103.4,-67.63"/>
<polygon fill="#4e79a7" fill-opacity="0.533333" stroke="#4e79a7" stroke-width="0.55" stroke-opacity="0.533333" points="103.33,-66.4 99.93,-67.87 103.51,-68.85 103.33,-66.4"/>
</g>
<!-- c_13&#45;&gt;c_14 -->
<g id="edge5" class="edge">
<title>c_13&#45;&gt;c_14</title>
<path fill="none" stroke="#4e79a7" stroke-width="0.55" stroke-opacity="0.533333" d="M371.77,-164.8C352.74,-164.8 313.52,-164.8 291.91,-164.8"/>
<polygon fill="#4e79a7" fill-opacity="0.533333" stroke="#4e79a7" stroke-width="0.55" stroke-opacity="0.533333" points="292.17,-163.58 288.67,-164.8 292.17,-166.03 292.17,-163.58"/>
</g>
<!-- c_25&#45;&gt;c_8 -->
<g id="edge10" class="edge">
<title>c_25&#45;&gt;c_8</title>
<path fill="none" stroke="#4e79a7" stroke-width="0.55" stroke-opacity="0.533333" d="M21.56,-83.07C35.07,-80.16 58.31,-75.15 73.46,-71.89"/>
<polygon fill="#4e79a7" fill-opacity="0.533333" stroke="#4e79a7" stroke-width="0.55" stroke-opacity="0.533333" points="73.53,-73.12 76.69,-71.19 73.01,-70.73 73.53,-73.12"/>
</g>
<!-- c_1 -->
<g id="node1" class="node">
<title>c_1</title>
<g id="a_node1"><a xlink:title="t_HN_SIF(S); t_F3SI_NH2(S); t_F2SINH(S); t_H2NFSINH(S); t_HN(FSINH)2(S)">
<ellipse fill="#f28e2b" stroke="#263238" stroke-width="0.6" cx="257.44" cy="-10.8" rx="10.8" ry="10.8"/>
<text xml:space="preserve" text-anchor="middle" x="257.44" y="-8.28" font-family="Helvetica,sans-Serif" font-size="7.00">N1</text>
</a>
</g>
</g>
<!-- c_2 -->
<g id="node2" class="node">
<title>c_2</title>
<g id="a_node2"><a xlink:title="s_HN_NH2(S)">
<ellipse fill="#f28e2b" stroke="#263238" stroke-width="0.6" cx="200.7" cy="-164.8" rx="10.8" ry="10.8"/>
<text xml:space="preserve" text-anchor="middle" x="200.7" y="-162.28" font-family="Helvetica,sans-Serif" font-size="7.00">N2</text>
</a>
</g>
</g>
<!-- c_3 -->
<g id="node3" class="node">
<title>c_3</title>
<g id="a_node3"><a xlink:title="s_HN_SIF(S); s_F3SI_NH2(S); s_F2SINH(S); s_H2NFSINH(S); s_HN(FSINH)2(S)">
<ellipse fill="#f28e2b" stroke="#263238" stroke-width="0.6" cx="281.67" cy="-87.27" rx="10.8" ry="10.8"/>
<text xml:space="preserve" text-anchor="middle" x="281.67" y="-84.74" font-family="Helvetica,sans-Serif" font-size="7.00">N3</text>
</a>
</g>
</g>
<!-- c_5 -->
<g id="node4" class="node">
<title>c_5</title>
<g id="a_node4"><a xlink:title="k_HN_SIF(S); k_F3SI_NH2(S); k_F2SINH(S); k_H2NFSINH(S); k_HN(FSINH)2(S)">
<ellipse fill="#f28e2b" stroke="#263238" stroke-width="0.6" cx="241.49" cy="-96.32" rx="10.8" ry="10.8"/>
<text xml:space="preserve" text-anchor="middle" x="241.49" y="-93.79" font-family="Helvetica,sans-Serif" font-size="7.00">N4</text>
</a>
</g>
</g>
<!-- c_8 -->
<g id="node5" class="node">
<title>c_8</title>
<g id="a_node5"><a xlink:title="H2; H; NH; NH2; NNH; N2H2; N2H3; N2H4; HF; NH3">
<ellipse fill="#4e79a7" stroke="#263238" stroke-width="0.6" cx="88.17" cy="-68.72" rx="10.8" ry="10.8"/>
<text xml:space="preserve" text-anchor="middle" x="88.17" y="-66.19" font-family="Helvetica,sans-Serif" font-size="7.00">N5</text>
</a>
</g>
</g>
<!-- c_10 -->
<g id="node6" class="node">
<title>c_10</title>
<g id="a_node6"><a xlink:title="SIF4; SIF3">
<ellipse fill="#4e79a7" stroke="#263238" stroke-width="0.6" cx="193.04" cy="-61.2" rx="10.8" ry="10.8"/>
<text xml:space="preserve" text-anchor="middle" x="193.04" y="-58.68" font-family="Helvetica,sans-Serif" font-size="7.00">N6</text>
</a>
</g>
</g>
<!-- c_13 -->
<g id="node7" class="node">
<title>c_13</title>
<g id="a_node7"><a xlink:title="O; O2">
<ellipse fill="#4e79a7" stroke="#263238" stroke-width="0.6" cx="382.7" cy="-164.8" rx="10.8" ry="10.8"/>
<text xml:space="preserve" text-anchor="middle" x="382.7" y="-162.28" font-family="Helvetica,sans-Serif" font-size="7.00">N7</text>
</a>
</g>
</g>
<!-- c_14 -->
<g id="node8" class="node">
<title>c_14</title>
<g id="a_node8"><a xlink:title="OH; H2O; HO2; H2O2">
<ellipse fill="#4e79a7" stroke="#263238" stroke-width="0.6" cx="276.8" cy="-164.8" rx="10.8" ry="10.8"/>
<text xml:space="preserve" text-anchor="middle" x="276.8" y="-162.28" font-family="Helvetica,sans-Serif" font-size="7.00">N8</text>
</a>
</g>
</g>
<!-- c_18 -->
<g id="node9" class="node">
<title>c_18</title>
<g id="a_node9"><a xlink:title="NO; NO2; N2O">
<ellipse fill="#4e79a7" stroke="#263238" stroke-width="0.6" cx="42.87" cy="-21.88" rx="10.8" ry="10.8"/>
<text xml:space="preserve" text-anchor="middle" x="42.87" y="-19.35" font-family="Helvetica,sans-Serif" font-size="7.00">N9</text>
</a>
</g>
</g>
<!-- c_25 -->
<g id="node10" class="node">
<title>c_25</title>
<g id="a_node10"><a xlink:title="HCO; CH2O; CH2OH; CH3O; CH3OH; HCCO; CH2CO; HCCOH; CH2CHO; CH3CHO">
<ellipse fill="#4e79a7" stroke="#263238" stroke-width="0.6" cx="10.8" cy="-85.39" rx="10.8" ry="10.8"/>
<text xml:space="preserve" text-anchor="middle" x="10.8" y="-82.86" font-family="Helvetica,sans-Serif" font-size="7.00">N10</text>
</a>
</g>
</g>
<!-- c_26 -->
<g id="node11" class="node">
<title>c_26</title>
<g id="a_node11"><a xlink:title="SI(D)">
<ellipse fill="#59a14f" stroke="#263238" stroke-width="0.6" cx="320.49" cy="-50.44" rx="10.8" ry="10.8"/>
<text xml:space="preserve" text-anchor="middle" x="320.49" y="-47.91" font-family="Helvetica,sans-Serif" font-size="7.00">N11</text>
</a>
</g>
</g>
<!-- c_27 -->
<g id="node12" class="node">
<title>c_27</title>
<g id="a_node12"><a xlink:title="N(D)">
<ellipse fill="#59a14f" stroke="#263238" stroke-width="0.6" cx="94.8" cy="-164.8" rx="10.8" ry="10.8"/>
<text xml:space="preserve" text-anchor="middle" x="94.8" y="-162.28" font-family="Helvetica,sans-Serif" font-size="7.00">N12</text>
</a>
</g>
</g>
</g>
</svg>
