<?xml version="1.0" encoding="UTF-8" standalone="no"?>
<!DOCTYPE svg PUBLIC "-//W3C//DTD SVG 1.1//EN"
 "http://www.w3.org/Graphics/SVG/1.1/DTD/svg11.dtd">
<!-- Generated by graphviz version 14.1.4 (20260321.0153)
 -->
<!-- Title: G Pages: 1 -->
<svg width="459pt" height="238pt"
 viewBox="0.00 0.00 459.00 238.00" xmlns="http://www.w3.org/2000/svg" xmlns:xlink="http://www.w3.org/1999/xlink">
<g id="graph0" class="graph" transform="scale(1 1) rotate(0) translate(18 220.41)">
<title>G</title>
<polygon fill="white" stroke="none" points="-18,18 -18,-220.41 440.67,-220.41 440.67,18 -18,18"/>
<text xml:space="preserve" text-anchor="middle" x="79.62" y="-185.11" font-family="Times New Roman,serif" font-size="14.00">sif4 baseline after reduced</text>
<!-- c_0&#45;&gt;c_1 -->
<g id="edge17" class="edge">
<title>c_0&#45;&gt;c_1</title>
<path fill="none" stroke="#f28e2b" stroke-width="0.55" stroke-opacity="0.533333" d="M324.08,-156.26C329.25,-151.95 335.04,-145.09 338.97,-138.76"/>
<polygon fill="#f28e2b" fill-opacity="0.533333" stroke="#f28e2b" stroke-width="0.55" stroke-opacity="0.533333" points="339.85,-139.69 340.53,-136.05 337.72,-138.47 339.85,-139.69"/>
</g>
<!-- c_0&#45;&gt;c_8 -->
<g id="edge18" class="edge">
<title>c_0&#45;&gt;c_8</title>
<path fill="none" stroke="#59a14f" stroke-width="0.55" stroke-opacity="0.533333" d="M305.1,-153.48C287.14,-140.28 246.43,-110.34 226.1,-95.39"/>
<polygon fill="#59a14f" fill-opacity="0.533333" stroke="#59a14f" stroke-width="0.55" stroke-opacity="0.533333" points="227,-94.53 223.46,-93.45 225.55,-96.51 227,-94.53"/>
</g>
<!-- c_0&#45;&gt;c_28 -->
<g id="edge19" class="edge">
<title>c_0&#45;&gt;c_28</title>
<path fill="none" stroke="#59a14f" stroke-width="0.55" stroke-opacity="0.533333" d="M317.26,-149.45C320.47,-139.95 325.88,-125.8 332.82,-114.65 337.88,-106.52 344.97,-98.41 350.81,-92.31"/>
<polygon fill="#59a14f" fill-opacity="0.533333" stroke="#59a14f" stroke-width="0.55" stroke-opacity="0.533333" points="351.42,-93.44 352.99,-90.08 349.67,-91.72 351.42,-93.44"/>
</g>
<!-- c_1&#45;&gt;c_0 -->
<g id="edge3" class="edge">
<title>c_1&#45;&gt;c_0</title>
<path fill="none" stroke="#f28e2b" stroke-width="0.55" stroke-opacity="0.533333" d="M332.43,-128.11C327.26,-132.42 321.47,-139.29 317.54,-145.61"/>
<polygon fill="#f28e2b" fill-opacity="0.533333" stroke="#f28e2b" stroke-width="0.55" stroke-opacity="0.533333" points="316.66,-144.68 315.98,-148.33 318.78,-145.9 316.66,-144.68"/>
</g>
<!-- c_1&#45;&gt;c_8 -->
<g id="edge25" class="edge">
<title>c_1&#45;&gt;c_8</title>
<path fill="none" stroke="#59a14f" stroke-width="0.55" stroke-opacity="0.533333" d="M332.32,-121.09C322.32,-117.9 306.65,-112.96 293,-108.9 270.48,-102.19 244.21,-94.85 228.37,-90.47"/>
<polygon fill="#59a14f" fill-opacity="0.533333" stroke="#59a14f" stroke-width="0.55" stroke-opacity="0.533333" points="229.08,-89.4 225.38,-89.65 228.43,-91.76 229.08,-89.4"/>
</g>
<!-- c_1&#45;&gt;c_27 -->
<g id="edge4" class="edge">
<title>c_1&#45;&gt;c_27</title>
<path fill="none" stroke="#59a14f" stroke-width="0.55" stroke-opacity="0.533333" d="M351.6,-117.96C363.92,-109.26 385.98,-93.67 399.72,-83.96"/>
<polygon fill="#59a14f" fill-opacity="0.533333" stroke="#59a14f" stroke-width="0.55" stroke-opacity="0.533333" points="400.19,-85.12 402.34,-82.1 398.78,-83.12 400.19,-85.12"/>
</g>
<!-- c_2&#45;&gt;c_3 -->
<g id="edge13" class="edge">
<title>c_2&#45;&gt;c_3</title>
<path fill="none" stroke="#f28e2b" stroke-width="0.55" stroke-opacity="0.533333" d="M303.75,-120.54C309.76,-117.03 316.88,-111.01 321.96,-105.27"/>
<polygon fill="#f28e2b" fill-opacity="0.533333" stroke="#f28e2b" stroke-width="0.55" stroke-opacity="0.533333" points="322.74,-106.25 324.02,-102.77 320.85,-104.69 322.74,-106.25"/>
</g>
<!-- c_2&#45;&gt;c_8 -->
<g id="edge14" class="edge">
<title>c_2&#45;&gt;c_8</title>
<path fill="none" stroke="#59a14f" stroke-width="0.55" stroke-opacity="0.533333" d="M283.01,-118.07C269.01,-111.67 243.53,-100.02 227.78,-92.82"/>
<polygon fill="#59a14f" fill-opacity="0.533333" stroke="#59a14f" stroke-width="0.55" stroke-opacity="0.533333" points="228.45,-91.78 224.76,-91.43 227.43,-94 228.45,-91.78"/>
</g>
<!-- c_2&#45;&gt;c_28 -->
<g id="edge15" class="edge">
<title>c_2&#45;&gt;c_28</title>
<path fill="none" stroke="#59a14f" stroke-width="0.55" stroke-opacity="0.533333" d="M303.3,-118.6C312.6,-114.76 326.49,-108.52 337.65,-101.45 342.01,-98.69 346.47,-95.23 350.33,-92"/>
<polygon fill="#59a14f" fill-opacity="0.533333" stroke="#59a14f" stroke-width="0.55" stroke-opacity="0.533333" points="350.92,-93.11 352.79,-89.91 349.33,-91.25 350.92,-93.11"/>
</g>
<!-- c_3&#45;&gt;c_2 -->
<g id="edge7" class="edge">
<title>c_3&#45;&gt;c_2</title>
<path fill="none" stroke="#f28e2b" stroke-width="0.55" stroke-opacity="0.533333" d="M317.19,-93.83C311.18,-97.35 304.06,-103.37 298.98,-109.1"/>
<polygon fill="#f28e2b" fill-opacity="0.533333" stroke="#f28e2b" stroke-width="0.55" stroke-opacity="0.533333" points="298.2,-108.12 296.92,-111.6 300.09,-109.68 298.2,-108.12"/>
</g>
<!-- c_3&#45;&gt;c_8 -->
<g id="edge24" class="edge">
<title>c_3&#45;&gt;c_8</title>
<path fill="none" stroke="#59a14f" stroke-width="0.55" stroke-opacity="0.533333" d="M317.02,-91.24C296.58,-90.31 252.53,-88.3 229.24,-87.24"/>
<polygon fill="#59a14f" fill-opacity="0.533333" stroke="#59a14f" stroke-width="0.55" stroke-opacity="0.533333" points="229.52,-86.03 225.97,-87.09 229.41,-88.48 229.52,-86.03"/>
</g>
<!-- c_3&#45;&gt;c_27 -->
<g id="edge8" class="edge">
<title>c_3&#45;&gt;c_27</title>
<path fill="none" stroke="#59a14f" stroke-width="0.55" stroke-opacity="0.533333" d="M338.49,-94.36C345.08,-95.67 353.74,-96.77 361.4,-95.75 374.79,-93.97 388.97,-87.82 398.88,-82.74"/>
<polygon fill="#59a14f" fill-opacity="0.533333" stroke="#59a14f" stroke-width="0.55" stroke-opacity="0.533333" points="399.33,-83.88 401.85,-81.17 398.18,-81.72 399.33,-83.88"/>
</g>
<!-- c_4&#45;&gt;c_5 -->
<g id="edge9" class="edge">
<title>c_4&#45;&gt;c_5</title>
<path fill="none" stroke="#f28e2b" stroke-width="0.55" stroke-opacity="0.533333" d="M305.32,-19.53C309.96,-22.6 316.39,-25.44 322.27,-27.11"/>
<polygon fill="#f28e2b" fill-opacity="0.533333" stroke="#f28e2b" stroke-width="0.55" stroke-opacity="0.533333" points="321.73,-28.24 325.42,-27.87 322.3,-25.86 321.73,-28.24"/>
</g>
<!-- c_4&#45;&gt;c_8 -->
<g id="edge10" class="edge">
<title>c_4&#45;&gt;c_8</title>
<path fill="none" stroke="#59a14f" stroke-width="0.55" stroke-opacity="0.533333" d="M290.88,-18.06C275.57,-31.72 242.49,-61.22 225.17,-76.67"/>
<polygon fill="#59a14f" fill-opacity="0.533333" stroke="#59a14f" stroke-width="0.55" stroke-opacity="0.533333" points="224.75,-75.4 222.95,-78.65 226.38,-77.23 224.75,-75.4"/>
</g>
<!-- c_4&#45;&gt;c_28 -->
<g id="edge11" class="edge">
<title>c_4&#45;&gt;c_28</title>
<path fill="none" stroke="#59a14f" stroke-width="0.55" stroke-opacity="0.533333" d="M306.18,-18.97C317.37,-31.74 339.02,-56.45 351.63,-70.85"/>
<polygon fill="#59a14f" fill-opacity="0.533333" stroke="#59a14f" stroke-width="0.55" stroke-opacity="0.533333" points="350.55,-71.48 353.78,-73.31 352.39,-69.87 350.55,-71.48"/>
</g>
<!-- c_5&#45;&gt;c_4 -->
<g id="edge5" class="edge">
<title>c_5&#45;&gt;c_4</title>
<path fill="none" stroke="#f28e2b" stroke-width="0.55" stroke-opacity="0.533333" d="M330.79,-17.51C326.15,-14.44 319.72,-11.6 313.84,-9.93"/>
<polygon fill="#f28e2b" fill-opacity="0.533333" stroke="#f28e2b" stroke-width="0.55" stroke-opacity="0.533333" points="314.38,-8.8 310.69,-9.17 313.81,-11.18 314.38,-8.8"/>
</g>
<!-- c_5&#45;&gt;c_8 -->
<g id="edge23" class="edge">
<title>c_5&#45;&gt;c_8</title>
<path fill="none" stroke="#59a14f" stroke-width="0.55" stroke-opacity="0.533333" d="M327.43,-30.97C305.72,-41.62 252.94,-67.5 227.82,-79.82"/>
<polygon fill="#59a14f" fill-opacity="0.533333" stroke="#59a14f" stroke-width="0.55" stroke-opacity="0.533333" points="227.39,-78.67 224.78,-81.31 228.46,-80.87 227.39,-78.67"/>
</g>
<!-- c_5&#45;&gt;c_27 -->
<g id="edge6" class="edge">
<title>c_5&#45;&gt;c_27</title>
<path fill="none" stroke="#59a14f" stroke-width="0.55" stroke-opacity="0.533333" d="M346.25,-32.27C359.49,-40.96 383.99,-57.06 399.02,-66.93"/>
<polygon fill="#59a14f" fill-opacity="0.533333" stroke="#59a14f" stroke-width="0.55" stroke-opacity="0.533333" points="398.33,-67.94 401.93,-68.84 399.67,-65.89 398.33,-67.94"/>
</g>
<!-- c_7&#45;&gt;c_6 -->
<g id="edge29" class="edge">
<title>c_7&#45;&gt;c_6</title>
<path fill="none" stroke="#4e79a7" stroke-width="0.55" stroke-opacity="0.533333" d="M130.89,-161.07C134.53,-161.9 138.68,-162.85 142.59,-163.74"/>
<polygon fill="#4e79a7" fill-opacity="0.533333" stroke="#4e79a7" stroke-width="0.55" stroke-opacity="0.533333" points="142.22,-164.91 145.9,-164.5 142.76,-162.53 142.22,-164.91"/>
</g>
<!-- c_7&#45;&gt;c_8 -->
<g id="edge28" class="edge">
<title>c_7&#45;&gt;c_8</title>
<path fill="none" stroke="#4e79a7" stroke-width="0.55" stroke-opacity="0.533333" d="M126.3,-149.59C133.33,-139.22 145.94,-122.1 159.73,-110.29 174.61,-97.53 179.55,-92.64 199.08,-87.14"/>
<polygon fill="#4e79a7" fill-opacity="0.533333" stroke="#4e79a7" stroke-width="0.55" stroke-opacity="0.533333" points="199.33,-88.34 202.39,-86.24 198.69,-85.97 199.33,-88.34"/>
</g>
<!-- c_7&#45;&gt;c_13 -->
<g id="edge51" class="edge">
<title>c_7&#45;&gt;c_13</title>
<path fill="none" stroke="#4e79a7" stroke-width="0.55" stroke-opacity="0.533333" d="M125.09,-148.85C128.62,-140.44 132.74,-127.94 132.04,-116.59 131.69,-110.8 129.53,-104.84 127.08,-99.81"/>
<polygon fill="#4e79a7" fill-opacity="0.533333" stroke="#4e79a7" stroke-width="0.55" stroke-opacity="0.533333" points="128.27,-99.43 125.56,-96.89 126.09,-100.56 128.27,-99.43"/>
</g>
<!-- c_7&#45;&gt;c_18 -->
<g id="edge43" class="edge">
<title>c_7&#45;&gt;c_18</title>
<path fill="none" stroke="#4e79a7" stroke-width="0.55" stroke-opacity="0.533333" d="M119.84,-147.62C119.6,-142.75 119.31,-136.95 119.05,-131.69"/>
<polygon fill="#4e79a7" fill-opacity="0.533333" stroke="#4e79a7" stroke-width="0.55" stroke-opacity="0.533333" points="120.28,-131.7 118.88,-128.26 117.83,-131.82 120.28,-131.7"/>
</g>
<!-- c_7&#45;&gt;c_22 -->
<g id="edge31" class="edge">
<title>c_7&#45;&gt;c_22</title>
<path fill="none" stroke="#4e79a7" stroke-width="0.55" stroke-opacity="0.533333" d="M113.12,-150.34C106.85,-143.15 97.75,-132.71 90.79,-124.73"/>
<polygon fill="#4e79a7" fill-opacity="0.533333" stroke="#4e79a7" stroke-width="0.55" stroke-opacity="0.533333" points="91.72,-123.93 88.5,-122.1 89.88,-125.54 91.72,-123.93"/>
</g>
<!-- c_8&#45;&gt;c_6 -->
<g id="edge35" class="edge">
<title>c_8&#45;&gt;c_6</title>
<path fill="none" stroke="#4e79a7" stroke-width="0.55" stroke-opacity="0.533333" d="M207.8,-95.48C197.61,-109.95 177.47,-138.56 165.96,-154.9"/>
<polygon fill="#4e79a7" fill-opacity="0.533333" stroke="#4e79a7" stroke-width="0.55" stroke-opacity="0.533333" points="165,-154.14 163.99,-157.71 167,-155.55 165,-154.14"/>
</g>
<!-- c_8&#45;&gt;c_7 -->
<g id="edge26" class="edge">
<title>c_8&#45;&gt;c_7</title>
<path fill="none" stroke="#4e79a7" stroke-width="0.55" stroke-opacity="0.533333" d="M203.65,-83.58C201.88,-83.19 200.32,-82.94 199.38,-83.01 176.97,-84.63 169.33,-86.95 152.42,-101.75 145.27,-108.01 133.75,-130.48 126.67,-145.22"/>
<polygon fill="#4e79a7" fill-opacity="0.533333" stroke="#4e79a7" stroke-width="0.55" stroke-opacity="0.533333" points="125.72,-144.35 125.32,-148.04 127.94,-145.41 125.72,-144.35"/>
</g>
<!-- c_8&#45;&gt;c_14 -->
<g id="edge21" class="edge">
<title>c_8&#45;&gt;c_14</title>
<path fill="none" stroke="#4e79a7" stroke-width="0.55" stroke-opacity="0.533333" d="M207.04,-78.07C198.1,-72.09 182.64,-65.31 171.1,-62.16"/>
<polygon fill="#4e79a7" fill-opacity="0.533333" stroke="#4e79a7" stroke-width="0.55" stroke-opacity="0.533333" points="171.55,-61.01 167.86,-61.37 170.97,-63.39 171.55,-61.01"/>
</g>
<!-- c_8&#45;&gt;c_16 -->
<g id="edge56" class="edge">
<title>c_8&#45;&gt;c_16</title>
<path fill="none" stroke="#4e79a7" stroke-width="0.55" stroke-opacity="0.533333" d="M205.42,-80.18C187.36,-66.89 145.64,-36.2 124.79,-20.85"/>
<polygon fill="#4e79a7" fill-opacity="0.533333" stroke="#4e79a7" stroke-width="0.55" stroke-opacity="0.533333" points="125.6,-19.93 122.06,-18.84 124.15,-21.91 125.6,-19.93"/>
</g>
<!-- c_8&#45;&gt;c_17 -->
<g id="edge52" class="edge">
<title>c_8&#45;&gt;c_17</title>
<path fill="none" stroke="#4e79a7" stroke-width="0.55" stroke-opacity="0.533333" d="M208.17,-77.78C207.41,-76.83 206.61,-75.9 205.8,-75.05 187.76,-56.21 183.41,-47.81 158.37,-40.49 142.06,-35.73 137,-34.16 120.27,-37.18 119.98,-37.23 119.68,-37.3 119.37,-37.37"/>
<polygon fill="#4e79a7" fill-opacity="0.533333" stroke="#4e79a7" stroke-width="0.55" stroke-opacity="0.533333" points="119.25,-36.12 116.3,-38.36 120.01,-38.45 119.25,-36.12"/>
</g>
<!-- c_8&#45;&gt;c_18 -->
<g id="edge54" class="edge">
<title>c_8&#45;&gt;c_18</title>
<path fill="none" stroke="#4e79a7" stroke-width="0.55" stroke-opacity="0.533333" d="M203.28,-85.49C185.13,-87.9 148.78,-99.09 130.03,-107.85"/>
<polygon fill="#4e79a7" fill-opacity="0.533333" stroke="#4e79a7" stroke-width="0.55" stroke-opacity="0.533333" points="129.88,-106.56 127.27,-109.2 130.96,-108.76 129.88,-106.56"/>
</g>
<!-- c_8&#45;&gt;c_20 -->
<g id="edge44" class="edge">
<title>c_8&#45;&gt;c_20</title>
<path fill="none" stroke="#4e79a7" stroke-width="0.55" stroke-opacity="0.533333" d="M205.48,-93C198.57,-98.19 188.78,-105.52 181.16,-111.24"/>
<polygon fill="#4e79a7" fill-opacity="0.533333" stroke="#4e79a7" stroke-width="0.55" stroke-opacity="0.533333" points="180.77,-110 178.7,-113.08 182.24,-111.96 180.77,-110"/>
</g>
<!-- c_10&#45;&gt;c_1 -->
<g id="edge20" class="edge">
<title>c_10&#45;&gt;c_1</title>
<path fill="none" stroke="#59a14f" stroke-width="0.55" stroke-opacity="0.533333" d="M309.07,-72.98C310.02,-81.39 312.38,-93 318.21,-101.45 321.68,-106.48 326.4,-111.24 330.77,-115.11"/>
<polygon fill="#59a14f" fill-opacity="0.533333" stroke="#59a14f" stroke-width="0.55" stroke-opacity="0.533333" points="329.92,-116 333.38,-117.34 331.51,-114.14 329.92,-116"/>
</g>
<!-- c_10&#45;&gt;c_3 -->
<g id="edge16" class="edge">
<title>c_10&#45;&gt;c_3</title>
<path fill="none" stroke="#59a14f" stroke-width="0.55" stroke-opacity="0.533333" d="M314.39,-71.17C316.06,-73.69 317.89,-76.48 319.66,-79.17"/>
<polygon fill="#59a14f" fill-opacity="0.533333" stroke="#59a14f" stroke-width="0.55" stroke-opacity="0.533333" points="318.61,-79.8 321.56,-82.05 320.66,-78.45 318.61,-79.8"/>
</g>
<!-- c_10&#45;&gt;c_5 -->
<g id="edge12" class="edge">
<title>c_10&#45;&gt;c_5</title>
<path fill="none" stroke="#59a14f" stroke-width="0.55" stroke-opacity="0.533333" d="M315.08,-53.8C318.86,-49.07 323.65,-43.07 327.79,-37.88"/>
<polygon fill="#59a14f" fill-opacity="0.533333" stroke="#59a14f" stroke-width="0.55" stroke-opacity="0.533333" points="328.53,-38.92 329.76,-35.42 326.62,-37.39 328.53,-38.92"/>
</g>
<!-- c_10&#45;&gt;c_8 -->
<g id="edge1" class="edge">
<title>c_10&#45;&gt;c_8</title>
<path fill="none" stroke="#4e79a7" stroke-width="0.55" stroke-opacity="0.533333" d="M297.98,-64.83C281.12,-69.19 247.88,-77.8 228.69,-82.77"/>
<polygon fill="#4e79a7" fill-opacity="0.533333" stroke="#4e79a7" stroke-width="0.55" stroke-opacity="0.533333" points="228.48,-81.56 225.4,-83.62 229.09,-83.93 228.48,-81.56"/>
</g>
<!-- c_10&#45;&gt;c_28 -->
<g id="edge2" class="edge">
<title>c_10&#45;&gt;c_28</title>
<path fill="none" stroke="#59a14f" stroke-width="0.55" stroke-opacity="0.533333" d="M318.65,-65.95C326.85,-69.03 338.46,-73.39 347.51,-76.79"/>
<polygon fill="#59a14f" fill-opacity="0.533333" stroke="#59a14f" stroke-width="0.55" stroke-opacity="0.533333" points="346.73,-77.81 350.44,-77.89 347.59,-75.51 346.73,-77.81"/>
</g>
<!-- c_13&#45;&gt;c_6 -->
<g id="edge58" class="edge">
<title>c_13&#45;&gt;c_6</title>
<path fill="none" stroke="#4e79a7" stroke-width="0.55" stroke-opacity="0.533333" d="M123.94,-96.79C130.68,-110.97 143.16,-137.23 150.82,-153.34"/>
<polygon fill="#4e79a7" fill-opacity="0.533333" stroke="#4e79a7" stroke-width="0.55" stroke-opacity="0.533333" points="149.69,-153.82 152.3,-156.45 151.9,-152.77 149.69,-153.82"/>
</g>
<!-- c_13&#45;&gt;c_8 -->
<g id="edge36" class="edge">
<title>c_13&#45;&gt;c_8</title>
<path fill="none" stroke="#4e79a7" stroke-width="0.55" stroke-opacity="0.533333" d="M130.14,-86.92C147.06,-86.85 179.71,-86.7 198.93,-86.62"/>
<polygon fill="#4e79a7" fill-opacity="0.533333" stroke="#4e79a7" stroke-width="0.55" stroke-opacity="0.533333" points="198.72,-87.85 202.21,-86.61 198.71,-85.4 198.72,-87.85"/>
</g>
<!-- c_13&#45;&gt;c_14 -->
<g id="edge22" class="edge">
<title>c_13&#45;&gt;c_14</title>
<path fill="none" stroke="#4e79a7" stroke-width="0.55" stroke-opacity="0.533333" d="M130.27,-86.37C136.16,-83.89 143.19,-79.42 148.53,-74.86"/>
<polygon fill="#4e79a7" fill-opacity="0.533333" stroke="#4e79a7" stroke-width="0.55" stroke-opacity="0.533333" points="149.26,-75.85 151,-72.58 147.6,-74.05 149.26,-75.85"/>
</g>
<!-- c_13&#45;&gt;c_16 -->
<g id="edge39" class="edge">
<title>c_13&#45;&gt;c_16</title>
<path fill="none" stroke="#4e79a7" stroke-width="0.55" stroke-opacity="0.533333" d="M120.14,-75.97C120.67,-67.25 121.03,-54.78 119.87,-43.93 119.25,-38.12 117.95,-31.84 116.6,-26.38"/>
<polygon fill="#4e79a7" fill-opacity="0.533333" stroke="#4e79a7" stroke-width="0.55" stroke-opacity="0.533333" points="117.84,-26.28 115.78,-23.19 115.47,-26.89 117.84,-26.28"/>
</g>
<!-- c_13&#45;&gt;c_18 -->
<g id="edge49" class="edge">
<title>c_13&#45;&gt;c_18</title>
<path fill="none" stroke="#4e79a7" stroke-width="0.55" stroke-opacity="0.533333" d="M112.7,-95.81C112.2,-98.21 111.97,-100.86 112.02,-103.44"/>
<polygon fill="#4e79a7" fill-opacity="0.533333" stroke="#4e79a7" stroke-width="0.55" stroke-opacity="0.533333" points="110.77,-103.17 112.27,-106.56 113.21,-102.98 110.77,-103.17"/>
</g>
<!-- c_13&#45;&gt;c_20 -->
<g id="edge46" class="edge">
<title>c_13&#45;&gt;c_20</title>
<path fill="none" stroke="#4e79a7" stroke-width="0.55" stroke-opacity="0.533333" d="M128.47,-93.03C136.39,-98.24 147.91,-105.82 156.72,-111.62"/>
<polygon fill="#4e79a7" fill-opacity="0.533333" stroke="#4e79a7" stroke-width="0.55" stroke-opacity="0.533333" points="156.01,-112.63 159.61,-113.53 157.36,-110.58 156.01,-112.63"/>
</g>
<!-- c_13&#45;&gt;c_24 -->
<g id="edge65" class="edge">
<title>c_13&#45;&gt;c_24</title>
<path fill="none" stroke="#4e79a7" stroke-width="0.55" stroke-opacity="0.533333" d="M108.47,-87.99C88.98,-89.82 47.88,-93.7 25.72,-95.79"/>
<polygon fill="#4e79a7" fill-opacity="0.533333" stroke="#4e79a7" stroke-width="0.55" stroke-opacity="0.533333" points="25.75,-94.56 22.38,-96.11 25.98,-97 25.75,-94.56"/>
</g>
<!-- c_13&#45;&gt;c_26 -->
<g id="edge40" class="edge">
<title>c_13&#45;&gt;c_26</title>
<path fill="none" stroke="#4e79a7" stroke-width="0.55" stroke-opacity="0.533333" d="M124.19,-77.11C130.61,-64.28 141.84,-41.81 149.05,-27.39"/>
<polygon fill="#4e79a7" fill-opacity="0.533333" stroke="#4e79a7" stroke-width="0.55" stroke-opacity="0.533333" points="150.13,-27.97 150.59,-24.29 147.93,-26.88 150.13,-27.97"/>
</g>
<!-- c_14&#45;&gt;c_8 -->
<g id="edge61" class="edge">
<title>c_14&#45;&gt;c_8</title>
<path fill="none" stroke="#4e79a7" stroke-width="0.55" stroke-opacity="0.533333" d="M163.37,-70.56C172.3,-76.54 187.76,-83.31 199.3,-86.46"/>
<polygon fill="#4e79a7" fill-opacity="0.533333" stroke="#4e79a7" stroke-width="0.55" stroke-opacity="0.533333" points="198.86,-87.61 202.55,-87.25 199.44,-85.23 198.86,-87.61"/>
</g>
<!-- c_14&#45;&gt;c_13 -->
<g id="edge57" class="edge">
<title>c_14&#45;&gt;c_13</title>
<path fill="none" stroke="#4e79a7" stroke-width="0.55" stroke-opacity="0.533333" d="M145.32,-62.67C139.42,-65.15 132.39,-69.62 127.05,-74.18"/>
<polygon fill="#4e79a7" fill-opacity="0.533333" stroke="#4e79a7" stroke-width="0.55" stroke-opacity="0.533333" points="126.33,-73.18 124.58,-76.45 127.99,-74.99 126.33,-73.18"/>
</g>
<!-- c_14&#45;&gt;c_20 -->
<g id="edge42" class="edge">
<title>c_14&#45;&gt;c_20</title>
<path fill="none" stroke="#4e79a7" stroke-width="0.55" stroke-opacity="0.533333" d="M153.45,-72.78C153.78,-82.73 156.92,-97.5 160.76,-107.87"/>
<polygon fill="#4e79a7" fill-opacity="0.533333" stroke="#4e79a7" stroke-width="0.55" stroke-opacity="0.533333" points="159.57,-108.19 162.01,-110.98 161.84,-107.28 159.57,-108.19"/>
</g>
<!-- c_14&#45;&gt;c_26 -->
<g id="edge68" class="edge">
<title>c_14&#45;&gt;c_26</title>
<path fill="none" stroke="#4e79a7" stroke-width="0.55" stroke-opacity="0.533333" d="M161.68,-52.72C163.04,-45.59 163.18,-35.66 162.14,-27.63"/>
<polygon fill="#4e79a7" fill-opacity="0.533333" stroke="#4e79a7" stroke-width="0.55" stroke-opacity="0.533333" points="163.35,-27.46 161.57,-24.21 160.93,-27.86 163.35,-27.46"/>
</g>
<!-- c_16&#45;&gt;c_26 -->
<g id="edge60" class="edge">
<title>c_16&#45;&gt;c_26</title>
<path fill="none" stroke="#4e79a7" stroke-width="0.55" stroke-opacity="0.533333" d="M121.38,-17.85C127.34,-19.35 135.28,-19.95 142.04,-19.5"/>
<polygon fill="#4e79a7" fill-opacity="0.533333" stroke="#4e79a7" stroke-width="0.55" stroke-opacity="0.533333" points="141.88,-20.74 145.24,-19.16 141.63,-18.31 141.88,-20.74"/>
</g>
<!-- c_17&#45;&gt;c_8 -->
<g id="edge27" class="edge">
<title>c_17&#45;&gt;c_8</title>
<path fill="none" stroke="#4e79a7" stroke-width="0.55" stroke-opacity="0.533333" d="M117.15,-43.82C127.42,-43.99 143.14,-44.87 156.32,-48.32 179.21,-54.33 184.53,-60.66 203.65,-76.35"/>
<polygon fill="#4e79a7" fill-opacity="0.533333" stroke="#4e79a7" stroke-width="0.55" stroke-opacity="0.533333" points="202.45,-76.95 205.93,-78.21 203.99,-75.05 202.45,-76.95"/>
</g>
<!-- c_17&#45;&gt;c_14 -->
<g id="edge47" class="edge">
<title>c_17&#45;&gt;c_14</title>
<path fill="none" stroke="#4e79a7" stroke-width="0.55" stroke-opacity="0.533333" d="M116.28,-47.6C123.77,-50.31 134.04,-54.02 142.3,-57"/>
<polygon fill="#4e79a7" fill-opacity="0.533333" stroke="#4e79a7" stroke-width="0.55" stroke-opacity="0.533333" points="141.69,-58.08 145.39,-58.12 142.52,-55.78 141.69,-58.08"/>
</g>
<!-- c_17&#45;&gt;c_16 -->
<g id="edge45" class="edge">
<title>c_17&#45;&gt;c_16</title>
<path fill="none" stroke="#4e79a7" stroke-width="0.55" stroke-opacity="0.533333" d="M108.27,-33.04C108.66,-31.05 109.07,-28.95 109.48,-26.86"/>
<polygon fill="#4e79a7" fill-opacity="0.533333" stroke="#4e79a7" stroke-width="0.55" stroke-opacity="0.533333" points="110.68,-27.14 110.15,-23.47 108.27,-26.67 110.68,-27.14"/>
</g>
<!-- c_17&#45;&gt;c_22 -->
<g id="edge30" class="edge">
<title>c_17&#45;&gt;c_22</title>
<path fill="none" stroke="#4e79a7" stroke-width="0.55" stroke-opacity="0.533333" d="M102.37,-54.15C98.02,-66.01 90.82,-85.66 85.92,-99"/>
<polygon fill="#4e79a7" fill-opacity="0.533333" stroke="#4e79a7" stroke-width="0.55" stroke-opacity="0.533333" points="84.83,-98.43 84.77,-102.14 87.13,-99.27 84.83,-98.43"/>
</g>
<!-- c_17&#45;&gt;c_23 -->
<g id="edge69" class="edge">
<title>c_17&#45;&gt;c_23</title>
<path fill="none" stroke="#4e79a7" stroke-width="0.55" stroke-opacity="0.533333" d="M95.1,-44.16C84.01,-44.38 66.84,-44.74 54.48,-44.99"/>
<polygon fill="#4e79a7" fill-opacity="0.533333" stroke="#4e79a7" stroke-width="0.55" stroke-opacity="0.533333" points="54.47,-43.77 51,-45.06 54.52,-46.21 54.47,-43.77"/>
</g>
<!-- c_17&#45;&gt;c_26 -->
<g id="edge33" class="edge">
<title>c_17&#45;&gt;c_26</title>
<path fill="none" stroke="#4e79a7" stroke-width="0.55" stroke-opacity="0.533333" d="M117,-43.38C126.12,-40.04 138.81,-32.62 147.23,-25.83"/>
<polygon fill="#4e79a7" fill-opacity="0.533333" stroke="#4e79a7" stroke-width="0.55" stroke-opacity="0.533333" points="147.62,-27.11 149.5,-23.91 146.04,-25.24 147.62,-27.11"/>
</g>
<!-- c_18&#45;&gt;c_6 -->
<g id="edge34" class="edge">
<title>c_18&#45;&gt;c_6</title>
<path fill="none" stroke="#4e79a7" stroke-width="0.55" stroke-opacity="0.533333" d="M124.75,-124.93C131.16,-133.22 141.04,-146 148.25,-155.32"/>
<polygon fill="#4e79a7" fill-opacity="0.533333" stroke="#4e79a7" stroke-width="0.55" stroke-opacity="0.533333" points="147.15,-155.91 150.26,-157.93 149.09,-154.41 147.15,-155.91"/>
</g>
<!-- c_18&#45;&gt;c_8 -->
<g id="edge70" class="edge">
<title>c_18&#45;&gt;c_8</title>
<path fill="none" stroke="#4e79a7" stroke-width="0.55" stroke-opacity="0.533333" d="M129.1,-117.65C147.25,-115.24 183.6,-104.05 202.35,-95.29"/>
<polygon fill="#4e79a7" fill-opacity="0.533333" stroke="#4e79a7" stroke-width="0.55" stroke-opacity="0.533333" points="202.51,-96.58 205.11,-93.94 201.43,-94.38 202.51,-96.58"/>
</g>
<!-- c_18&#45;&gt;c_13 -->
<g id="edge48" class="edge">
<title>c_18&#45;&gt;c_13</title>
<path fill="none" stroke="#4e79a7" stroke-width="0.55" stroke-opacity="0.533333" d="M124.86,-107.75C125.36,-105.35 125.59,-102.7 125.54,-100.12"/>
<polygon fill="#4e79a7" fill-opacity="0.533333" stroke="#4e79a7" stroke-width="0.55" stroke-opacity="0.533333" points="126.79,-100.39 125.3,-96.99 124.35,-100.58 126.79,-100.39"/>
</g>
<!-- c_18&#45;&gt;c_14 -->
<g id="edge37" class="edge">
<title>c_18&#45;&gt;c_14</title>
<path fill="none" stroke="#4e79a7" stroke-width="0.55" stroke-opacity="0.533333" d="M124.58,-107.59C130.89,-98.54 140.67,-84.52 147.7,-74.43"/>
<polygon fill="#4e79a7" fill-opacity="0.533333" stroke="#4e79a7" stroke-width="0.55" stroke-opacity="0.533333" points="148.68,-75.16 149.68,-71.59 146.68,-73.76 148.68,-75.16"/>
</g>
<!-- c_18&#45;&gt;c_20 -->
<g id="edge55" class="edge">
<title>c_18&#45;&gt;c_20</title>
<path fill="none" stroke="#4e79a7" stroke-width="0.55" stroke-opacity="0.533333" d="M127.32,-122.57C135.15,-124.69 146.6,-125.67 155.59,-125.12"/>
<polygon fill="#4e79a7" fill-opacity="0.533333" stroke="#4e79a7" stroke-width="0.55" stroke-opacity="0.533333" points="155.58,-126.35 158.95,-124.8 155.35,-123.91 155.58,-126.35"/>
</g>
<!-- c_18&#45;&gt;c_22 -->
<g id="edge62" class="edge">
<title>c_18&#45;&gt;c_22</title>
<path fill="none" stroke="#4e79a7" stroke-width="0.55" stroke-opacity="0.533333" d="M107.63,-115.62C103.93,-115.29 99.72,-114.9 95.74,-114.54"/>
<polygon fill="#4e79a7" fill-opacity="0.533333" stroke="#4e79a7" stroke-width="0.55" stroke-opacity="0.533333" points="95.97,-113.33 92.38,-114.24 95.75,-115.77 95.97,-113.33"/>
</g>
<!-- c_18&#45;&gt;c_23 -->
<g id="edge71" class="edge">
<title>c_18&#45;&gt;c_23</title>
<path fill="none" stroke="#4e79a7" stroke-width="0.55" stroke-opacity="0.533333" d="M110.15,-109.23C95.96,-96.42 66.72,-70.02 50.61,-55.47"/>
<polygon fill="#4e79a7" fill-opacity="0.533333" stroke="#4e79a7" stroke-width="0.55" stroke-opacity="0.533333" points="51.6,-54.72 48.19,-53.29 49.96,-56.54 51.6,-54.72"/>
</g>
<!-- c_20&#45;&gt;c_14 -->
<g id="edge63" class="edge">
<title>c_20&#45;&gt;c_14</title>
<path fill="none" stroke="#4e79a7" stroke-width="0.55" stroke-opacity="0.533333" d="M172.32,-109.3C171.99,-99.35 168.86,-84.58 165.02,-74.2"/>
<polygon fill="#4e79a7" fill-opacity="0.533333" stroke="#4e79a7" stroke-width="0.55" stroke-opacity="0.533333" points="166.21,-73.89 163.76,-71.1 163.94,-74.8 166.21,-73.89"/>
</g>
<!-- c_20&#45;&gt;c_18 -->
<g id="edge41" class="edge">
<title>c_20&#45;&gt;c_18</title>
<path fill="none" stroke="#4e79a7" stroke-width="0.55" stroke-opacity="0.533333" d="M160.43,-114.03C152.6,-111.91 141.16,-110.92 132.17,-111.48"/>
<polygon fill="#4e79a7" fill-opacity="0.533333" stroke="#4e79a7" stroke-width="0.55" stroke-opacity="0.533333" points="132.18,-110.24 128.81,-111.79 132.41,-112.68 132.18,-110.24"/>
</g>
<!-- c_22&#45;&gt;c_8 -->
<g id="edge66" class="edge">
<title>c_22&#45;&gt;c_8</title>
<path fill="none" stroke="#4e79a7" stroke-width="0.55" stroke-opacity="0.533333" d="M91.18,-110C98.68,-107.79 109.05,-104.9 118.3,-102.84 146.62,-96.56 180.12,-91.36 199.06,-88.63"/>
<polygon fill="#4e79a7" fill-opacity="0.533333" stroke="#4e79a7" stroke-width="0.55" stroke-opacity="0.533333" points="198.98,-89.88 202.28,-88.17 198.64,-87.46 198.98,-89.88"/>
</g>
<!-- c_22&#45;&gt;c_24 -->
<g id="edge67" class="edge">
<title>c_22&#45;&gt;c_24</title>
<path fill="none" stroke="#4e79a7" stroke-width="0.55" stroke-opacity="0.533333" d="M70.1,-110.75C58.19,-108.03 38.8,-103.6 25.45,-100.55"/>
<polygon fill="#4e79a7" fill-opacity="0.533333" stroke="#4e79a7" stroke-width="0.55" stroke-opacity="0.533333" points="26.02,-99.42 22.33,-99.83 25.47,-101.81 26.02,-99.42"/>
</g>
<!-- c_23&#45;&gt;c_16 -->
<g id="edge59" class="edge">
<title>c_23&#45;&gt;c_16</title>
<path fill="none" stroke="#4e79a7" stroke-width="0.55" stroke-opacity="0.533333" d="M49.2,-40.78C62.03,-34.9 84.49,-24.6 98.91,-17.99"/>
<polygon fill="#4e79a7" fill-opacity="0.533333" stroke="#4e79a7" stroke-width="0.55" stroke-opacity="0.533333" points="99.32,-19.15 101.99,-16.58 98.3,-16.92 99.32,-19.15"/>
</g>
<!-- c_23&#45;&gt;c_24 -->
<g id="edge64" class="edge">
<title>c_23&#45;&gt;c_24</title>
<path fill="none" stroke="#4e79a7" stroke-width="0.55" stroke-opacity="0.533333" d="M34.11,-54.82C29.6,-63.01 23.05,-74.92 18.04,-84.03"/>
<polygon fill="#4e79a7" fill-opacity="0.533333" stroke="#4e79a7" stroke-width="0.55" stroke-opacity="0.533333" points="17.02,-83.35 16.4,-87.01 19.16,-84.53 17.02,-83.35"/>
</g>
<!-- c_26&#45;&gt;c_8 -->
<g id="edge38" class="edge">
<title>c_26&#45;&gt;c_8</title>
<path fill="none" stroke="#4e79a7" stroke-width="0.55" stroke-opacity="0.533333" d="M162.73,-22.47C173.16,-35.48 192.93,-60.15 204.67,-74.8"/>
<polygon fill="#4e79a7" fill-opacity="0.533333" stroke="#4e79a7" stroke-width="0.55" stroke-opacity="0.533333" points="203.52,-75.32 206.66,-77.29 205.43,-73.79 203.52,-75.32"/>
</g>
<!-- c_26&#45;&gt;c_14 -->
<g id="edge50" class="edge">
<title>c_26&#45;&gt;c_14</title>
<path fill="none" stroke="#4e79a7" stroke-width="0.55" stroke-opacity="0.533333" d="M150.46,-23.2C149.09,-30.33 148.96,-40.25 150,-48.29"/>
<polygon fill="#4e79a7" fill-opacity="0.533333" stroke="#4e79a7" stroke-width="0.55" stroke-opacity="0.533333" points="148.79,-48.45 150.57,-51.71 151.21,-48.05 148.79,-48.45"/>
</g>
<!-- c_26&#45;&gt;c_16 -->
<g id="edge32" class="edge">
<title>c_26&#45;&gt;c_16</title>
<path fill="none" stroke="#4e79a7" stroke-width="0.55" stroke-opacity="0.533333" d="M146.89,-7.78C140.94,-6.28 132.99,-5.68 126.23,-6.13"/>
<polygon fill="#4e79a7" fill-opacity="0.533333" stroke="#4e79a7" stroke-width="0.55" stroke-opacity="0.533333" points="126.39,-4.88 123.03,-6.46 126.64,-7.32 126.39,-4.88"/>
</g>
<!-- c_26&#45;&gt;c_17 -->
<g id="edge53" class="edge">
<title>c_26&#45;&gt;c_17</title>
<path fill="none" stroke="#4e79a7" stroke-width="0.55" stroke-opacity="0.533333" d="M144.94,-14.39C135.82,-17.73 123.13,-25.16 114.71,-31.94"/>
<polygon fill="#4e79a7" fill-opacity="0.533333" stroke="#4e79a7" stroke-width="0.55" stroke-opacity="0.533333" points="114.32,-30.66 112.45,-33.86 115.91,-32.53 114.32,-30.66"/>
</g>
<!-- c_0 -->
<g id="node1" class="node">
<title>c_0</title>
<g id="a_node1"><a xlink:title="t_HN_NH2(S)">
<ellipse fill="#f28e2b" stroke="#263238" stroke-width="0.6" cx="313.97" cy="-160" rx="10.8" ry="10.8"/>
<text xml:space="preserve" text-anchor="middle" x="313.97" y="-157.48" font-family="Helvetica,sans-Serif" font-size="7.00">N1</text>
</a>
</g>
</g>
<!-- c_1 -->
<g id="node2" class="node">
<title>c_1</title>
<g id="a_node2"><a xlink:title="t_HN_SIF(S); t_F3SI_NH2(S); t_F2SINH(S); t_H2NFSINH(S); t_HN(FSINH)2(S)">
<ellipse fill="#f28e2b" stroke="#263238" stroke-width="0.6" cx="342.54" cy="-124.37" rx="10.8" ry="10.8"/>
<text xml:space="preserve" text-anchor="middle" x="342.54" y="-121.85" font-family="Helvetica,sans-Serif" font-size="7.00">N2</text>
</a>
</g>
</g>
<!-- c_2 -->
<g id="node3" class="node">
<title>c_2</title>
<g id="a_node3"><a xlink:title="s_HN_NH2(S)">
<ellipse fill="#f28e2b" stroke="#263238" stroke-width="0.6" cx="293" cy="-122.64" rx="10.8" ry="10.8"/>
<text xml:space="preserve" text-anchor="middle" x="293" y="-120.12" font-family="Helvetica,sans-Serif" font-size="7.00">N3</text>
</a>
</g>
</g>
<!-- c_3 -->
<g id="node4" class="node">
<title>c_3</title>
<g id="a_node4"><a xlink:title="s_HN_SIF(S); s_F3SI_NH2(S); s_F2SINH(S); s_H2NFSINH(S); s_HN(FSINH)2(S)">
<ellipse fill="#f28e2b" stroke="#263238" stroke-width="0.6" cx="327.93" cy="-91.73" rx="10.8" ry="10.8"/>
<text xml:space="preserve" text-anchor="middle" x="327.93" y="-89.21" font-family="Helvetica,sans-Serif" font-size="7.00">N4</text>
</a>
</g>
</g>
<!-- c_4 -->
<g id="node5" class="node">
<title>c_4</title>
<g id="a_node5"><a xlink:title="k_HN_NH2(S)">
<ellipse fill="#f28e2b" stroke="#263238" stroke-width="0.6" cx="299.03" cy="-10.8" rx="10.8" ry="10.8"/>
<text xml:space="preserve" text-anchor="middle" x="299.03" y="-8.27" font-family="Helvetica,sans-Serif" font-size="7.00">N5</text>
</a>
</g>
</g>
<!-- c_5 -->
<g id="node6" class="node">
<title>c_5</title>
<g id="a_node6"><a xlink:title="k_HN_SIF(S); k_F3SI_NH2(S); k_F2SINH(S); k_H2NFSINH(S); k_HN(FSINH)2(S)">
<ellipse fill="#f28e2b" stroke="#263238" stroke-width="0.6" cx="337.08" cy="-26.24" rx="10.8" ry="10.8"/>
<text xml:space="preserve" text-anchor="middle" x="337.08" y="-23.72" font-family="Helvetica,sans-Serif" font-size="7.00">N6</text>
</a>
</g>
</g>
<!-- c_6 -->
<g id="node7" class="node">
<title>c_6</title>
<g id="a_node7"><a xlink:title="N2">
<ellipse fill="#4e79a7" stroke="#263238" stroke-width="0.6" cx="157.37" cy="-167.11" rx="10.8" ry="10.8"/>
<text xml:space="preserve" text-anchor="middle" x="157.37" y="-164.59" font-family="Helvetica,sans-Serif" font-size="7.00">N7</text>
</a>
</g>
</g>
<!-- c_7 -->
<g id="node8" class="node">
<title>c_7</title>
<g id="a_node8"><a xlink:title="N">
<ellipse fill="#4e79a7" stroke="#263238" stroke-width="0.6" cx="120.39" cy="-158.68" rx="10.8" ry="10.8"/>
<text xml:space="preserve" text-anchor="middle" x="120.39" y="-156.16" font-family="Helvetica,sans-Serif" font-size="7.00">N8</text>
</a>
</g>
</g>
<!-- c_8 -->
<g id="node9" class="node">
<title>c_8</title>
<g id="a_node9"><a xlink:title="H2; H; NH; NH2; NNH; N2H2; N2H3; N2H4; HF; NH3">
<ellipse fill="#4e79a7" stroke="#263238" stroke-width="0.6" cx="214.09" cy="-86.55" rx="10.8" ry="10.8"/>
<text xml:space="preserve" text-anchor="middle" x="214.09" y="-84.03" font-family="Helvetica,sans-Serif" font-size="7.00">N9</text>
</a>
</g>
</g>
<!-- c_10 -->
<g id="node10" class="node">
<title>c_10</title>
<g id="a_node10"><a xlink:title="SIF4; SIF3">
<ellipse fill="#4e79a7" stroke="#263238" stroke-width="0.6" cx="308.44" cy="-62.12" rx="10.8" ry="10.8"/>
<text xml:space="preserve" text-anchor="middle" x="308.44" y="-59.59" font-family="Helvetica,sans-Serif" font-size="7.00">N10</text>
</a>
</g>
</g>
<!-- c_13 -->
<g id="node11" class="node">
<title>c_13</title>
<g id="a_node11"><a xlink:title="O; O2">
<ellipse fill="#4e79a7" stroke="#263238" stroke-width="0.6" cx="119.26" cy="-86.97" rx="10.8" ry="10.8"/>
<text xml:space="preserve" text-anchor="middle" x="119.26" y="-84.44" font-family="Helvetica,sans-Serif" font-size="7.00">N11</text>
</a>
</g>
</g>
<!-- c_14 -->
<g id="node12" class="node">
<title>c_14</title>
<g id="a_node12"><a xlink:title="OH; H2O; HO2; H2O2">
<ellipse fill="#4e79a7" stroke="#263238" stroke-width="0.6" cx="156.32" cy="-62.07" rx="10.8" ry="10.8"/>
<text xml:space="preserve" text-anchor="middle" x="156.32" y="-59.55" font-family="Helvetica,sans-Serif" font-size="7.00">N12</text>
</a>
</g>
</g>
<!-- c_16 -->
<g id="node13" class="node">
<title>c_16</title>
<g id="a_node13"><a xlink:title="CO; CO2">
<ellipse fill="#4e79a7" stroke="#263238" stroke-width="0.6" cx="112.45" cy="-11.78" rx="10.8" ry="10.8"/>
<text xml:space="preserve" text-anchor="middle" x="112.45" y="-9.25" font-family="Helvetica,sans-Serif" font-size="7.00">N13</text>
</a>
</g>
</g>
<!-- c_17 -->
<g id="node14" class="node">
<title>c_17</title>
<g id="a_node14"><a xlink:title="CH; CH2; CH2(S); CH3; CH4; C2H; C2H2; C2H3; C2H4; C2H5; C2H6; C3H7; C3H8">
<ellipse fill="#4e79a7" stroke="#263238" stroke-width="0.6" cx="106.12" cy="-43.93" rx="10.8" ry="10.8"/>
<text xml:space="preserve" text-anchor="middle" x="106.12" y="-41.4" font-family="Helvetica,sans-Serif" font-size="7.00">N14</text>
</a>
</g>
</g>
<!-- c_18 -->
<g id="node15" class="node">
<title>c_18</title>
<g id="a_node15"><a xlink:title="NO; N2O">
<ellipse fill="#4e79a7" stroke="#263238" stroke-width="0.6" cx="118.3" cy="-116.59" rx="10.8" ry="10.8"/>
<text xml:space="preserve" text-anchor="middle" x="118.3" y="-114.06" font-family="Helvetica,sans-Serif" font-size="7.00">N15</text>
</a>
</g>
</g>
<!-- c_20 -->
<g id="node16" class="node">
<title>c_20</title>
<g id="a_node16"><a xlink:title="HNO">
<ellipse fill="#4e79a7" stroke="#263238" stroke-width="0.6" cx="169.45" cy="-120.01" rx="10.8" ry="10.8"/>
<text xml:space="preserve" text-anchor="middle" x="169.45" y="-117.48" font-family="Helvetica,sans-Serif" font-size="7.00">N16</text>
</a>
</g>
</g>
<!-- c_22 -->
<g id="node17" class="node">
<title>c_22</title>
<g id="a_node17"><a xlink:title="HCN; H2CN; HCNN">
<ellipse fill="#4e79a7" stroke="#263238" stroke-width="0.6" cx="80.72" cy="-113.18" rx="10.8" ry="10.8"/>
<text xml:space="preserve" text-anchor="middle" x="80.72" y="-110.65" font-family="Helvetica,sans-Serif" font-size="7.00">N17</text>
</a>
</g>
</g>
<!-- c_23 -->
<g id="node18" class="node">
<title>c_23</title>
<g id="a_node18"><a xlink:title="HCNO; HOCN; HNCO">
<ellipse fill="#4e79a7" stroke="#263238" stroke-width="0.6" cx="39.34" cy="-45.3" rx="10.8" ry="10.8"/>
<text xml:space="preserve" text-anchor="middle" x="39.34" y="-42.78" font-family="Helvetica,sans-Serif" font-size="7.00">N18</text>
</a>
</g>
</g>
<!-- c_24 -->
<g id="node19" class="node">
<title>c_24</title>
<g id="a_node19"><a xlink:title="NCO">
<ellipse fill="#4e79a7" stroke="#263238" stroke-width="0.6" cx="10.8" cy="-97.2" rx="10.8" ry="10.8"/>
<text xml:space="preserve" text-anchor="middle" x="10.8" y="-94.67" font-family="Helvetica,sans-Serif" font-size="7.00">N19</text>
</a>
</g>
</g>
<!-- c_26 -->
<g id="node20" class="node">
<title>c_26</title>
<g id="a_node20"><a xlink:title="HCO; CH2O; CH2OH; CH3O; CH3OH; HCCO; CH2CO; HCCOH; CH2CHO; CH3CHO">
<ellipse fill="#4e79a7" stroke="#263238" stroke-width="0.6" cx="155.82" cy="-13.84" rx="10.8" ry="10.8"/>
<text xml:space="preserve" text-anchor="middle" x="155.82" y="-11.32" font-family="Helvetica,sans-Serif" font-size="7.00">N20</text>
</a>
</g>
</g>
<!-- c_27 -->
<g id="node21" class="node">
<title>c_27</title>
<g id="a_node21"><a xlink:title="SI(D)">
<ellipse fill="#59a14f" stroke="#263238" stroke-width="0.6" cx="411.87" cy="-75.37" rx="10.8" ry="10.8"/>
<text xml:space="preserve" text-anchor="middle" x="411.87" y="-72.84" font-family="Helvetica,sans-Serif" font-size="7.00">N21</text>
</a>
</g>
</g>
<!-- c_28 -->
<g id="node22" class="node">
<title>c_28</title>
<g id="a_node22"><a xlink:title="N(D)">
<ellipse fill="#59a14f" stroke="#263238" stroke-width="0.6" cx="361.4" cy="-82.01" rx="10.8" ry="10.8"/>
<text xml:space="preserve" text-anchor="middle" x="361.4" y="-79.48" font-family="Helvetica,sans-Serif" font-size="7.00">N22</text>
</a>
</g>
</g>
</g>
</svg>
